<svg width="120" height="120" viewBox="0 0 120 120" fill="none" xmlns="http://www.w3.org/2000/svg">
<path d="M64 16V18H60C58.8955 18 58 18.8955 58 20C58 21.1045 58.8955 22 60 22H62V50H60C58.8955 50 58 50.8955 58 52C58 53.1045 58.8955 54 60 54H64V56C64 57.1045 64.8955 58 66 58C67.1045 58 68 57.1045 68 56V54H72V56C72 57.1045 72.8955 58 74 58C75.1045 58 76 57.1045 76 56V54C81.5063 54.0158 85.9828 49.565 85.9988 44.0588C86.008 40.8785 84.4995 37.8848 81.938 36C86.373 32.7365 87.3225 26.4955 84.0588 22.0607C82.1738 19.4992 79.18 17.9907 76 18V16C76 14.8955 75.1045 14 74 14C72.8955 14 72 14.8955 72 16V18H68V16C68 14.8955 67.1045 14 66 14C64.8955 14 64 14.8955 64 16ZM66 22H76C79.3138 22 82 24.6862 82 28C82 31.3138 79.3138 34 76 34H66V22ZM66 38H76C79.3138 38 82 40.6862 82 44C82 47.3138 79.3138 50 76 50H66V38Z" fill="#406FBF"/>
<path d="M69.3141 61.868C67.5078 61.682 65.7261 61.3072 63.9981 60.75C63.0113 60.4887 61.9863 61.0125 61.6196 61.9652C61.2228 62.9963 61.7371 64.1535 62.7681 64.55C64.7633 65.1935 66.8206 65.6258 68.9061 65.84C68.9726 65.8478 69.0393 65.8518 69.1061 65.852L69.1141 65.868C70.2186 65.9233 71.1588 65.0725 71.2141 63.968C71.2693 62.8635 70.4186 61.9233 69.3141 61.868Z" fill="#406FBF"/>
<path d="M94.5999 21.458C94.5976 21.458 94.5954 21.4575 94.5929 21.4575C94.5911 21.4575 94.5896 21.458 94.5879 21.458H94.5999Z" fill="#406FBF"/>
<path d="M95.7199 25.334C96.4657 26.9888 97.0349 28.7178 97.4179 30.492C97.6164 31.412 98.4297 32.069 99.3709 32.07C99.5139 32.0695 99.6564 32.054 99.7962 32.024C100.875 31.7905 101.561 30.727 101.328 29.648C100.885 27.599 100.228 25.602 99.3682 23.69C98.9142 22.6828 97.7294 22.234 96.7222 22.688C95.7144 23.142 95.2659 24.3268 95.7199 25.334Z" fill="#406FBF"/>
<path d="M89.3341 16.616C90.6876 17.8277 91.9116 19.177 92.9861 20.642C93.3618 21.1537 93.9586 21.456 94.5931 21.4575C95.0158 21.4562 95.4276 21.3212 95.7686 21.0712C96.6596 20.4185 96.8528 19.167 96.1998 18.276C94.9638 16.5885 93.5563 15.0335 91.9998 13.636C91.9733 13.6107 91.9461 13.5865 91.9181 13.5627C91.0751 12.8492 89.8131 12.954 89.0993 13.7972C88.3858 14.6405 88.4908 15.9022 89.3341 16.616Z" fill="#406FBF"/>
<path d="M89.428 55.32C88.077 56.5372 86.6023 57.6097 85.028 58.52C84.4123 58.8772 84.0327 59.5347 84.0315 60.2465C84.0295 61.351 84.9235 62.248 86.028 62.25L86.02 62.244C86.3782 62.2505 86.7315 62.1592 87.042 61.98C88.8548 60.93 90.5527 59.6932 92.108 58.29C92.9282 57.55 92.993 56.2852 92.253 55.465C91.513 54.6447 90.248 54.58 89.428 55.32Z" fill="#406FBF"/>
<path d="M80.0621 60.734C78.3363 61.295 76.5566 61.6737 74.7521 61.864C73.7448 61.9745 72.9793 62.8208 72.9701 63.834C72.9601 64.9385 73.8473 65.842 74.9521 65.852V65.846C75.0201 65.846 75.0901 65.842 75.1681 65.838C77.2521 65.619 79.3073 65.182 81.3001 64.534C81.3531 64.519 81.4056 64.502 81.4573 64.4828C82.4926 64.0975 83.0193 62.946 82.6341 61.9108C82.2488 60.8755 81.0973 60.3487 80.0621 60.734Z" fill="#406FBF"/>
<path d="M98 36C97.9998 37.8165 97.8115 39.6283 97.438 41.406C97.438 41.406 97.438 41.406 97.438 41.4063C97.21 42.487 97.9013 43.548 98.982 43.776C99.1183 43.8038 99.257 43.8178 99.396 43.818H99.4C100.343 43.8158 101.157 43.1548 101.352 42.232C101.783 40.1828 102 38.0943 102 36V35.884C102 35.871 102 35.8583 101.999 35.8455C101.973 34.7678 101.078 33.9155 100 33.942C98.8848 33.9703 97.9963 34.8845 98 36Z" fill="#406FBF"/>
<path d="M98.4039 45.558C97.3949 45.108 96.2119 45.561 95.7619 46.57C95.0219 48.2293 94.1102 49.8065 93.0419 51.276C92.7939 51.6173 92.6599 52.0283 92.6597 52.4503C92.6587 53.5548 93.5534 54.451 94.6579 54.452C95.2992 54.4523 95.9014 54.145 96.2779 53.626C97.5102 51.9318 98.5619 50.113 99.4159 48.2C99.8659 47.191 99.4129 46.008 98.4039 45.558Z" fill="#406FBF"/>
<path d="M59.0279 58.554C57.4542 57.643 55.9797 56.5705 54.6279 55.354C54.6129 55.34 54.5974 55.3262 54.5819 55.3127C53.7487 54.5875 52.4854 54.6752 51.7602 55.5085C51.0349 56.3417 51.1227 57.605 51.9559 58.3302C53.5147 59.7292 55.2144 60.9625 57.0279 62.0102C57.3317 62.1865 57.6767 62.279 58.0279 62.2782V62.2862C58.7424 62.2862 59.4027 61.905 59.7599 61.2862C60.3122 60.3295 59.9844 59.1062 59.0279 58.554Z" fill="#406FBF"/>
<path d="M44.616 43.88C44.7573 43.8803 44.898 43.8653 45.0363 43.8358C46.1165 43.605 46.805 42.542 46.574 41.462C46.1955 39.6868 46.0033 37.877 46 36.062C46 34.9575 45.1045 34.062 44 34.062C42.8955 34.062 42 34.9575 42 36.062C42.003 38.156 42.225 40.244 42.662 42.292C42.8583 43.2148 43.6725 43.875 44.616 43.876V43.88V43.88Z" fill="#406FBF"/>
<path d="M50.553 54.1088C51.4448 53.457 51.6395 52.2058 50.9878 51.314C49.9168 49.8483 49.0025 48.2743 48.2598 46.618C47.801 45.6505 46.6618 45.2158 45.675 45.632C44.6573 46.0613 44.1803 47.2345 44.6098 48.252C45.4663 50.1643 46.5205 51.9815 47.7558 53.674C48.133 54.1903 48.7343 54.495 49.3738 54.494C49.798 54.4938 50.2108 54.359 50.553 54.1088Z" fill="#406FBF"/>
<path d="M44.1861 32.196C44.3211 32.2237 44.4583 32.2377 44.5961 32.238H44.6001C45.5446 32.2355 46.3586 31.5725 46.5521 30.648C46.9246 28.872 47.4823 27.1397 48.2161 25.48C48.2233 25.464 48.2306 25.448 48.2376 25.4317C48.6721 24.4162 48.2011 23.2407 47.1859 22.8062C46.1704 22.3717 44.9948 22.8427 44.5603 23.8582C43.7116 25.776 43.0668 27.7777 42.6363 29.8302C42.4106 30.9115 43.1046 31.9707 44.1861 32.196Z" fill="#406FBF"/>
<path d="M79.95 11.234C81.6782 11.7902 83.3427 12.5277 84.916 13.434C85.22 13.6095 85.565 13.7012 85.916 13.7L85.91 13.694C86.6272 13.6952 87.29 13.3125 87.6475 12.6905C88.198 11.7327 87.8677 10.5102 86.91 9.96C85.0915 8.9175 83.169 8.0675 81.174 7.424C80.122 7.086 78.995 7.665 78.657 8.717C78.319 9.769 78.8977 10.896 79.95 11.234Z" fill="#406FBF"/>
<path d="M68.986 10.16C69.0627 10.1605 69.1397 10.1565 69.216 10.148C71.022 9.95878 72.8427 9.95328 74.65 10.132C75.749 10.2425 76.7295 9.44103 76.84 8.34203C76.9505 7.24303 76.149 6.26253 75.05 6.15203C72.9667 5.94478 70.8677 5.95153 68.786 6.17203C67.7787 6.28253 67.0132 7.12878 67.004 8.14203C66.994 9.24653 67.8815 10.15 68.986 10.16Z" fill="#406FBF"/>
<path d="M49.3039 21.6C49.9459 21.601 50.5491 21.2937 50.9259 20.774C51.9911 19.302 53.2069 17.9455 54.5539 16.726C54.5564 16.7237 54.5589 16.7215 54.5614 16.7192C55.3781 15.9755 55.4371 14.7105 54.6934 13.894C53.9496 13.0772 52.6846 13.0182 51.8681 13.762C50.3159 15.168 48.9144 16.7317 47.6861 18.428C47.4401 18.7682 47.3074 19.1775 47.3066 19.5975C47.3049 20.702 48.1991 21.5985 49.3039 21.6Z" fill="#406FBF"/>
<path d="M57.934 13.786C58.2895 13.787 58.6388 13.693 58.946 13.514C60.5158 12.601 62.1768 11.855 63.902 11.288C63.9178 11.283 63.9338 11.2777 63.9495 11.2725C64.9945 10.9147 65.5518 9.77748 65.194 8.73248C64.8363 7.68748 63.699 7.13023 62.654 7.48798C60.6628 8.14148 58.7455 9.00223 56.934 10.056C56.3183 10.4132 55.9388 11.0707 55.9375 11.7825C55.9355 12.887 56.8293 13.784 57.934 13.786Z" fill="#406FBF"/>
<path d="M72 72C91.8728 71.9767 107.977 55.8727 108 36C108 16.1178 91.8823 0 72 0C52.1178 0 36 16.1178 36 36C36 55.8822 52.1178 72 72 72ZM72 4C89.6645 4.021 103.979 18.3355 104 36C104 53.673 89.673 68 72 68C54.327 68 40 53.673 40 36C40 18.327 54.3268 4 72 4Z" fill="#BFBFBF"/>
<path d="M118.69 81.8C116.462 77.997 111.591 76.692 107.76 78.872L86.752 91C86.344 87.6845 83.946 84.958 80.71 84.13L61.886 80.8C59.1933 80.1863 56.599 79.2008 54.178 77.872C49.1848 75.2738 43.6287 73.944 38 74C32.4675 73.9213 27.0005 75.2035 22.08 77.734C20.18 78.734 18.1242 79.4048 16 79.718V74C16 72.8955 15.1045 72 14 72H2C0.8955 72 0 72.8955 0 74V118C0 119.105 0.8955 120 2 120H14C15.1045 120 16 119.105 16 118V112H21.06C22.8582 112.002 24.6527 112.166 26.422 112.488L66.222 119.71C67.616 119.954 69.0517 119.703 70.28 119L115.76 92.74C118.248 91.322 119.777 88.6717 119.76 85.808C119.76 84.4015 119.391 83.0195 118.69 81.8ZM12 116H4V76H12V116ZM113.76 89.268L68.27 115.534C67.859 115.765 67.3813 115.85 66.916 115.772L27.136 108.552C25.1312 108.188 23.0977 108.003 21.06 108H16V83.734C18.7825 83.399 21.481 82.5615 23.964 81.262C28.311 79.058 33.1267 77.9387 38 78C42.9565 77.9398 47.8518 79.0978 52.256 81.372C55.0298 82.8928 58.0035 84.0158 61.09 84.708L79.84 88.032C81.9742 88.6025 83.242 90.795 82.6715 92.9293C82.6702 92.9335 82.6692 92.9378 82.668 92.942C82.579 93.273 82.4445 93.59 82.268 93.884V93.9H82.258C81.3225 95.424 79.5132 96.1738 77.774 95.758C77.699 95.7378 77.623 95.7222 77.546 95.712L52.286 92.012C51.1982 91.82 50.1608 92.546 49.9688 93.6338C49.7767 94.7215 50.5027 95.759 51.5905 95.951C51.6287 95.9577 51.6675 95.9635 51.706 95.968L76.86 99.654C77.491 99.8092 78.1382 99.8878 78.788 99.888H78.816C81.4527 99.8873 83.9182 98.5813 85.4 96.4L109.752 82.336C111.662 81.227 114.11 81.8767 115.219 83.7875C115.574 84.3987 115.761 85.0933 115.76 85.8C115.769 87.2325 115.004 88.5585 113.76 89.268Z" fill="#BFBFBF"/>
</svg>
