<svg width="120" height="120" viewBox="0 0 120 120" fill="none" xmlns="http://www.w3.org/2000/svg">
<g clip-path="url(#clip0)">
<path d="M56.9579 59.1165C58.6895 57.4438 59.7704 55.1043 59.7716 52.5069C59.7688 47.4257 55.6504 43.3117 50.5736 43.3106H48.2633V41.3981C48.2633 40.2599 47.3416 39.3367 46.2034 39.3367C45.0653 39.3367 44.1421 40.2585 44.1421 41.3981V43.3106H42.0791V41.3981C42.0791 40.2599 41.1562 39.3367 40.0178 39.3367C38.8795 39.3367 37.9565 40.2585 37.9565 41.3981V43.3106H36.0733C34.9352 43.3106 34.012 44.2323 34.012 45.3719C34.012 46.5114 34.9352 47.4332 36.0733 47.4332H37.9537V72.991H36.0733C34.9352 72.991 34.012 73.9128 34.012 75.0524C34.012 76.1919 34.9352 77.1137 36.0733 77.1137H37.9537V79.141C37.9537 80.2792 38.8769 81.2023 40.015 81.2023C41.1531 81.2023 42.078 80.2796 42.078 79.1413V77.1139H44.1409V79.1413C44.1409 80.2794 45.0639 81.2026 46.2023 81.2026C47.3406 81.2026 48.2622 80.2808 48.2622 79.1413V77.1139H51.7136C57.1084 77.1123 61.48 72.7407 61.48 67.3459C61.4797 63.8828 59.6729 60.8495 56.9579 59.1165ZM42.078 47.4318H50.5752C51.9815 47.4318 53.2372 47.9957 54.1633 48.9173C55.0851 49.8419 55.6504 51.0979 55.6504 52.5053C55.6504 53.9127 55.0851 55.1673 54.1633 56.0922C53.237 57.014 51.9826 57.5776 50.5752 57.5793H42.078V47.4318ZM55.7064 71.3375C54.6784 72.3622 53.2799 72.9894 51.7148 72.991H42.078V61.7022H51.7148C53.2799 61.7022 54.6787 62.3307 55.7064 63.3557C56.7297 64.3836 57.3571 65.7807 57.3583 67.3459C57.3566 68.911 56.7297 70.31 55.7064 71.3375Z" fill="#406FBF"/>
<path d="M97.9141 23.9263H93.4968C92.2776 23.9263 91.2881 24.9142 91.2881 26.1351C91.2881 27.3545 92.2776 28.3436 93.4968 28.3436H97.9141C99.1333 28.3436 100.123 27.3541 100.123 26.1351C100.123 24.9142 99.1333 23.9263 97.9141 23.9263Z" fill="#406FBF"/>
<path d="M16.7999 23.9266H13.9879C11.1389 23.9352 8.84339 26.2293 8.83472 29.0798V30.1652C8.83472 31.3844 9.82425 32.3739 11.0432 32.3739C12.2624 32.3739 13.252 31.3844 13.252 30.1652V29.0798C13.252 28.8796 13.33 28.7057 13.4699 28.5616C13.6141 28.4202 13.7866 28.3436 13.9881 28.3436H16.8006C18.0199 28.3436 19.0094 27.3541 19.0094 26.1351C19.0084 24.9145 18.0192 23.9266 16.7999 23.9266Z" fill="#406FBF"/>
<path d="M11.0427 70.566C9.82351 70.566 8.83398 71.5555 8.83398 72.7747V81.2968C8.83398 82.516 9.82351 83.5056 11.0427 83.5056C12.2619 83.5056 13.2515 82.516 13.2515 81.2968V72.7747C13.2515 71.5555 12.2619 70.566 11.0427 70.566Z" fill="#406FBF"/>
<path d="M16.7821 91.6567H13.9879C13.7863 91.6567 13.6138 91.5786 13.4697 91.4387C13.3298 91.2945 13.2517 91.1206 13.2517 90.9205V89.8177C13.2517 88.5985 12.2622 87.609 11.043 87.609C9.82376 87.609 8.83423 88.5969 8.83423 89.8177V90.9205C8.8429 93.7709 11.1386 96.065 13.9874 96.0737H16.7821C18.0013 96.0737 18.9909 95.0841 18.9909 93.8652C18.9909 92.6445 18.003 91.6567 16.7821 91.6567Z" fill="#406FBF"/>
<path d="M33.8427 23.9263H25.3206C24.1013 23.9263 23.1118 24.9142 23.1118 26.1351C23.1118 27.3545 24.1013 28.3436 25.3206 28.3436H33.8427C35.0619 28.3436 36.0514 27.3541 36.0514 26.1351C36.0514 24.9142 35.0619 23.9263 33.8427 23.9263Z" fill="#406FBF"/>
<path d="M50.8857 23.9263H42.365C41.1444 23.9263 40.1562 24.9142 40.1562 26.1351C40.1562 27.3545 41.1441 28.3436 42.365 28.3436H50.8857C52.1049 28.3436 53.0944 27.3541 53.0944 26.1351C53.0944 24.9142 52.1049 23.9263 50.8857 23.9263Z" fill="#406FBF"/>
<path d="M11.0427 36.4785C9.82351 36.4785 8.83398 37.4664 8.83398 38.6873V47.2094C8.83398 48.4288 9.82351 49.4181 11.0427 49.4181C12.2619 49.4181 13.2515 48.4302 13.2515 47.2094V38.6873C13.2515 37.4664 12.2619 36.4785 11.0427 36.4785Z" fill="#406FBF"/>
<path d="M84.9745 23.9263H76.4524C75.2332 23.9263 74.2437 24.9142 74.2437 26.1351C74.2439 27.3545 75.2332 28.3436 76.4524 28.3436H84.9745C86.1937 28.3436 87.1832 27.3541 87.1832 26.1351C87.1832 24.9142 86.1937 23.9263 84.9745 23.9263Z" fill="#406FBF"/>
<path d="M11.0427 53.5215C9.82351 53.5215 8.83398 54.5094 8.83398 55.7301V64.2522C8.83398 65.4728 9.82351 66.4609 11.0427 66.4609C12.2619 66.4609 13.2515 65.473 13.2515 64.2522V55.7301C13.2515 54.5094 12.2619 53.5215 11.0427 53.5215Z" fill="#406FBF"/>
<path d="M67.9315 23.9266H59.4092C58.1886 23.9266 57.2004 24.9145 57.2004 26.1353C57.2004 27.3545 58.1883 28.3441 59.4092 28.3441H67.9315C69.1507 28.3441 70.14 27.3545 70.14 26.1353C70.14 24.9145 69.1507 23.9266 67.9315 23.9266Z" fill="#406FBF"/>
<path d="M84.9584 91.6566H76.4363C75.2157 91.6566 74.2278 92.6445 74.2278 93.8651C74.2278 95.0843 75.2157 96.0739 76.4363 96.0739H84.9584C86.1776 96.0739 87.1671 95.0843 87.1671 93.8651C87.1669 92.6445 86.1776 91.6566 84.9584 91.6566Z" fill="#406FBF"/>
<path d="M33.8282 91.6566H25.3059C24.0853 91.6566 23.0972 92.6445 23.0972 93.8651C23.0972 95.0843 24.0851 96.0739 25.3059 96.0739H33.828C35.0472 96.0739 36.0368 95.0843 36.0368 93.8651C36.0368 92.6445 35.0475 91.6566 33.8282 91.6566Z" fill="#406FBF"/>
<path d="M50.871 91.6566H42.3489C41.1297 91.6566 40.1401 92.6445 40.1401 93.8651C40.1401 95.0843 41.1297 96.0739 42.3489 96.0739H50.871C52.0902 96.0739 53.0797 95.0843 53.0797 93.8651C53.0797 92.6445 52.0902 91.6566 50.871 91.6566Z" fill="#406FBF"/>
<path d="M67.914 91.6566H59.3933C58.1727 91.6566 57.1846 92.6445 57.1846 93.8651C57.1846 95.0843 58.1725 96.0739 59.3931 96.0739H67.9138C69.133 96.0739 70.1225 95.0843 70.1225 93.8651C70.1225 92.6445 69.1332 91.6566 67.914 91.6566Z" fill="#406FBF"/>
<path d="M97.9141 91.6561H93.4968C92.2776 91.6561 91.2881 92.644 91.2881 93.8646C91.2881 95.0841 92.2776 96.0734 93.4968 96.0734H97.9141C99.1333 96.0734 100.123 95.0839 100.123 93.8646C100.123 92.644 99.1333 91.6561 97.9141 91.6561Z" fill="#406FBF"/>
<path d="M113.006 46.7486H110.429V23.1902C110.42 18.7216 106.8 15.101 102.331 15.0921H8.09811C3.62929 15.101 0.00867186 18.7216 0 23.1902V96.8098C0.00867186 101.278 3.62929 104.899 8.09811 104.908H102.331C106.8 104.899 110.42 101.279 110.43 96.8098V74.724H113.006C116.854 74.724 120 71.5775 120 67.7317V53.7409C120 49.8951 116.853 46.7486 113.006 46.7486ZM106.012 96.8098C106.012 97.8214 105.604 98.7315 104.93 99.4088C104.253 100.083 103.343 100.491 102.331 100.491H8.09811C7.08678 100.491 6.17647 100.082 5.49913 99.4088C4.82483 98.7315 4.41702 97.8216 4.41702 96.8098V23.1902C4.41702 22.1787 4.82507 21.2686 5.49913 20.5912C6.17647 19.9169 7.08631 19.5091 8.09811 19.5091H102.331C103.343 19.5091 104.253 19.9183 104.93 20.5912C105.604 21.2686 106.012 22.1784 106.012 23.1902V46.7484H91.2884C83.5644 46.7484 77.3005 53.0104 77.3005 60.7363C77.3005 68.4604 83.5639 74.7243 91.2884 74.7243H106.012V96.8098V96.8098ZM115.583 67.7317C115.583 69.1276 114.402 70.307 113.006 70.307H91.2882C86.011 70.307 81.7177 66.0135 81.7177 60.7365C81.7177 55.4596 86.0112 51.1661 91.2882 51.1661H113.006C114.402 51.1661 115.583 52.3455 115.583 53.7414V67.7317Z" fill="#BFBFBF"/>
<path d="M92.7585 64.4212C94.7914 64.4212 96.4393 62.7732 96.4393 60.7403C96.4393 58.7074 94.7914 57.0594 92.7585 57.0594C90.7256 57.0594 89.0776 58.7074 89.0776 60.7403C89.0776 62.7732 90.7256 64.4212 92.7585 64.4212Z" fill="#406FBF"/>
</g>
<defs>
<clipPath id="clip0">
<rect width="120" height="120" fill="white"/>
</clipPath>
</defs>
</svg>
