<svg width="120" height="120" viewBox="0 0 120 120" fill="none" xmlns="http://www.w3.org/2000/svg">
<g clip-path="url(#clip0)">
<path d="M90.0832 55.8197C90.0832 39.205 76.6133 25.7351 59.9985 25.7351C43.3838 25.7351 29.9139 39.205 29.9139 55.8197C29.9139 72.4344 43.3838 85.9043 59.9985 85.9043C76.6133 85.9043 90.0832 72.4365 90.0832 55.8197ZM59.9988 79.8875C46.7075 79.8875 35.9312 69.1113 35.9312 55.8199C35.9312 42.5286 46.7075 31.7524 59.9988 31.7524C73.2901 31.7524 84.0663 42.5286 84.0663 55.8199C84.0663 69.1113 73.2901 79.8875 59.9988 79.8875Z" fill="#7365DB"/>
<path d="M59.9988 31.7522C46.7075 31.7522 35.9313 42.5284 35.9313 55.8197C35.9313 69.111 46.7075 79.8872 59.9988 79.8872C73.2901 79.8872 84.0664 69.111 84.0664 55.8197C84.0664 42.5284 73.2901 31.7522 59.9988 31.7522ZM70.027 51.8084C70.027 54.0246 68.2319 55.8197 66.0157 55.8197C68.2319 55.8197 70.027 57.6148 70.027 59.831V63.8423C70.027 66.0585 68.2319 67.8536 66.0157 67.8536H62.0044H55.9875H53.982V43.7861H55.9875H62.0044H66.0157C68.2319 43.7861 70.027 45.5811 70.027 47.7973V51.8084Z" fill="#7365DB"/>
<path d="M66.0156 43.7861H53.9817V55.8199H66.0156C68.2318 55.8199 70.0269 54.0249 70.0269 51.8086V47.7974C70.0269 45.583 68.2318 43.7861 66.0156 43.7861Z" fill="#7365DB"/>
<path d="M53.9819 67.8536H66.0158C68.2321 67.8536 70.0271 66.0585 70.0271 63.8423V59.831C70.0271 57.6148 68.2321 55.8197 66.0158 55.8197H53.9819V67.8536V67.8536Z" fill="#7365DB"/>
<path d="M59.9988 120C59.6177 120 59.2446 119.892 58.9218 119.687L41.0035 108.283C24.0298 97.4605 13.3318 79.1009 12.2888 58.9966L10.0585 15.3922C9.88417 12.3297 12.046 9.62804 15.0727 9.12672L41.5468 2.32545C53.6529 -0.775311 66.3444 -0.775311 78.4505 2.32545L105.083 9.1607C108.048 9.71218 110.131 12.3897 109.939 15.3983L107.709 58.9969C106.666 79.1014 95.9678 97.461 78.994 108.283L61.0757 119.687C60.7549 119.892 60.3799 120 59.9988 120ZM59.9988 4.01434C54.1123 4.01434 48.2499 4.75636 42.5497 6.22049L15.9148 13.0475C14.8358 13.1598 14.0295 14.0905 14.0696 15.1735L16.2959 58.792C17.2686 77.5988 27.2728 94.7751 43.1513 104.9L59.9985 115.616L76.8457 104.9C92.7243 94.7751 102.729 77.5988 103.701 58.792L105.927 15.1876V15.1735C105.986 14.1507 105.263 13.25 104.255 13.0818L77.4478 6.21252C71.7458 4.75027 65.8853 4.01223 59.9988 4.01434Z" fill="#BFBFBF"/>
<path d="M20.4356 23.8901C19.3666 23.8922 18.4842 23.0539 18.4301 21.9868L18.2414 18.2483C18.1851 17.1411 19.0397 16.1985 20.1468 16.1424C21.254 16.0862 22.1967 16.9407 22.2527 18.0479L22.4411 21.7864C22.4974 22.8936 21.6468 23.8362 20.5418 23.8922C20.5418 23.8922 20.5418 23.8922 20.5397 23.8922L20.4356 23.8901Z" fill="#BFBFBF"/>
<path d="M59.9988 110.491C59.6177 110.491 59.2446 110.383 58.9237 110.178L45.3134 101.514C30.5299 92.0918 21.2119 76.1028 20.3032 58.5935L18.8431 29.9672C18.7868 28.86 19.6414 27.9174 20.7485 27.8613C21.8557 27.8053 22.7984 28.6596 22.8544 29.7668L24.3124 58.3913C25.1508 74.6047 33.7771 89.4103 47.4654 98.1388L61.0757 106.801C62.0064 107.403 62.2731 108.644 61.6715 109.575C61.3045 110.142 60.6766 110.487 59.9988 110.491Z" fill="#BFBFBF"/>
<path d="M70.0268 104.107C68.9197 104.109 68.0192 103.213 68.0171 102.106C68.015 101.418 68.3661 100.778 68.9478 100.409L72.5318 98.1386C73.4585 97.533 74.7019 97.7936 75.3075 98.7203C75.9131 99.647 75.6525 100.89 74.7258 101.496C74.7117 101.504 74.6998 101.512 74.6857 101.522L71.1036 103.794C70.7811 103.999 70.4079 104.107 70.0268 104.107Z" fill="#BFBFBF"/>
<path d="M79.9828 97.0497C78.8757 97.0497 77.9773 96.1511 77.9773 95.0442C77.9773 94.4664 78.226 93.9171 78.6612 93.536C88.8297 84.5829 94.971 71.9132 95.699 58.3833L97.6726 19.6744L75.4541 13.9822C74.2086 13.6614 72.9531 13.3806 71.6874 13.1399C70.5983 12.9313 69.8863 11.8804 70.0949 10.7912C70.3035 9.7021 71.3544 8.99007 72.4435 9.19866C73.7893 9.45741 75.1271 9.75624 76.4548 10.0951L100.252 16.2022C101.176 16.4389 101.804 17.2953 101.756 18.248L99.6962 58.5874C98.912 73.1985 92.2835 86.8809 81.3045 96.5521C80.9396 96.873 80.4682 97.0497 79.9828 97.0497Z" fill="#BFBFBF"/>
<path d="M63.97 12.1551H63.8437C62.564 12.0749 61.2825 12.0348 59.9988 12.0348C58.8916 12.0348 57.9933 11.1362 57.9933 10.0293C57.9933 8.92234 58.8919 8.02376 59.9988 8.02376C61.3647 8.02376 62.7286 8.06594 64.0942 8.15008C65.2014 8.18407 66.0719 9.11078 66.0377 10.218C66.0037 11.3251 65.077 12.1956 63.9698 12.1614L63.97 12.1551Z" fill="#BFBFBF"/>
<path d="M59.9987 81.893C45.5984 81.893 33.9254 70.2203 33.9254 55.8197C33.9254 41.4191 45.5981 29.7466 59.9987 29.7466C74.3993 29.7466 86.072 41.4194 86.072 55.82C86.0559 70.2142 74.3911 81.8771 59.9987 81.893ZM59.9987 33.7579C47.8146 33.7579 37.9367 43.6356 37.9367 55.82C37.9367 68.0043 47.8144 77.882 59.9987 77.882C72.1831 77.882 82.0607 68.0043 82.0607 55.82C82.0467 43.6417 72.177 33.7718 59.9987 33.7579Z" fill="white"/>
<path d="M72.0327 47.7974C72.0327 44.4739 69.339 41.7805 66.0158 41.7805H64.0103V37.7692H59.999V41.7805H57.9935V37.7692H53.9822V41.7805H47.9653V45.7918H51.9766V65.8481H47.9653V69.8594H53.9822V73.8707H57.9935V69.8594H59.999V73.8707H64.0103V69.8594H66.0158C69.3392 69.8594 72.0327 67.1657 72.0327 63.8425V59.8312C72.0266 58.347 71.469 56.9171 70.4682 55.8199C71.469 54.7228 72.0266 53.2929 72.0327 51.8087V47.7974ZM55.9875 45.7916H66.0156C67.1228 45.7916 68.0211 46.6902 68.0211 47.7971V51.8084C68.0211 52.9156 67.1225 53.8139 66.0156 53.8139H55.9875V45.7916V45.7916ZM68.0214 63.8423C68.0214 64.9495 67.1228 65.8478 66.0158 65.8478H55.9877V57.8252H66.0158C67.123 57.8252 68.0214 58.7238 68.0214 59.8308V63.8423Z" fill="white"/>
<path d="M59.9988 87.9098C42.2751 87.9098 27.9087 73.5435 27.9087 55.8197C27.9087 38.0959 42.2751 23.7296 59.9988 23.7296C77.7226 23.7296 92.089 38.0959 92.089 55.8197C92.0688 73.5336 77.7125 87.8899 59.9988 87.9098ZM59.9988 27.7409C44.4913 27.7409 31.92 40.3122 31.92 55.8197C31.92 71.3272 44.4913 83.8985 59.9988 83.8985C75.5064 83.8985 88.0777 71.3272 88.0777 55.8197C88.0617 40.3201 75.5003 27.7589 59.9988 27.7409Z" fill="#BFBFBF"/>
</g>
<defs>
<clipPath id="clip0">
<rect width="120" height="120" fill="white"/>
</clipPath>
</defs>
</svg>
