<svg width="120" height="120" viewBox="0 0 120 120" fill="none" xmlns="http://www.w3.org/2000/svg">
<g clip-path="url(#clip0)">
<path d="M96 37.9999C96 18.1179 79.882 1.99992 60 1.99992C40.118 1.99992 24 18.1179 24 37.9999C24 57.8819 40.118 73.9999 60 73.9999C79.882 73.9999 96 57.8819 96 37.9999ZM31.9999 37.9999C31.9999 22.5359 44.5359 9.99984 60 9.99984C75.4641 9.99984 88.0001 22.5359 88.0001 37.9999C88.0001 53.464 75.4641 66 60 66C44.5359 66 31.9999 53.464 31.9999 37.9999Z" fill="#7365DB"/>
<path d="M88.0001 37.9999C88.0001 22.5359 75.4641 9.99985 60.0001 9.99985C44.536 9.99985 32 22.5361 32 37.9999C32 53.4638 44.536 66 60.0001 66C75.4641 66 88.0001 53.464 88.0001 37.9999ZM56 55.9999V49.9999H54.0001V25.9999H56H62H66.0001C68.21 25.9999 70.0001 27.7898 70.0001 30V34.0001C70.0001 36.21 68.2102 38.0002 66.0001 38.0002C68.21 38.0002 70.0001 39.7901 70.0001 42.0002V46.0003C70.0001 48.2102 68.2102 50.0004 66.0001 50.0004H62H56V55.9999V55.9999Z" fill="#7365DB"/>
<path d="M70.0001 34.0001V30C70.0001 27.7901 68.2102 25.9999 66 25.9999H54V37.9999H66C68.2099 37.9999 70.0001 36.21 70.0001 34.0001Z" fill="#7365DB"/>
<path d="M66 49.9999C68.2099 49.9999 70.0001 48.21 70.0001 45.9998V42C70.0001 39.7901 68.2102 37.9999 66 37.9999H54V49.9999H66V49.9999Z" fill="#7365DB"/>
<path d="M114 16.0001H97.9999C96.896 16.0001 96 16.8961 96 18C96 19.1039 96.896 19.9999 97.9999 19.9999H114C115.104 19.9999 116 20.8959 116 21.9998V79.9999H4.00008V22.0001C4.00008 20.8962 4.89609 20.0002 6 20.0002H19.9999C21.1038 20.0002 21.9998 19.1041 21.9998 18.0002C21.9998 16.8963 21.1038 16.0003 19.9999 16.0003H6C2.68594 16.0003 0 18.6862 0 22.0003V90C0 93.3141 2.68594 96 6 96H52.0001V108H36C35.242 108 34.548 108.428 34.2101 109.106L30.21 117.106C29.7159 118.094 30.116 119.296 31.106 119.79C31.3821 119.928 31.6901 120 31.9999 120H87.9998C89.1038 120.006 90.0037 119.116 90.0098 118.01C90.012 117.696 89.9398 117.386 89.7998 117.106L85.7998 109.106C85.4597 108.424 84.7617 107.996 83.9998 108H67.9997V96H114C117.314 96 120 93.3141 120 90V22.0001C120 18.686 117.314 16.0001 114 16.0001ZM84.7641 116H35.2359L37.2359 112H82.7639L84.7641 116ZM64.0001 108H56.0002V96H64.0001V108ZM116 90C116 91.1039 115.104 91.9999 114 91.9999H6C4.89609 91.9999 4.00008 91.1039 4.00008 90V84H116V90H116Z" fill="#BFBFBF"/>
<path d="M60 67.9999C43.432 67.9999 30 54.5679 30 37.9999C30 21.432 43.432 7.99992 60 7.99992C76.568 7.99992 90 21.432 90 37.9999C89.982 54.5599 76.56 67.9821 60 67.9999ZM60 12C45.6401 12 34.0001 23.64 34.0001 37.9999C34.0001 52.3598 45.6401 64.0001 60 64.0001C74.3599 64.0001 85.9999 52.3601 85.9999 38.0002C85.984 23.648 74.352 12.0159 60 12Z" fill="white"/>
<path d="M59.9999 76.0001C39.014 76.0001 22 58.9861 22 38.0002C22 17.0142 39.014 0 59.9999 0C80.9859 0 97.9998 17.014 97.9998 37.9999C97.9759 58.9779 80.9779 75.9759 59.9999 76.0001ZM59.9999 4.00008C41.222 4.00008 25.9998 19.222 25.9998 38.0002C25.9998 56.7783 41.222 72 59.9999 72C78.7778 72 94 56.778 94 37.9999C93.9798 19.23 78.7698 4.02 59.9999 4.00008Z" fill="#BFBFBF"/>
<path d="M64.0001 90H56.0002C54.8963 90 54.0002 89.104 54.0002 88.0001C54.0002 86.8962 54.8963 86.0002 56.0002 86.0002H64.0001C65.104 86.0002 66 86.8962 66 88.0001C66 89.104 65.104 90 64.0001 90Z" fill="#BFBFBF"/>
<path d="M72 30C72 26.6859 69.3141 24 66 24H64.0001V19.9999H60V24H58.0001V19.9999H54V24H48V28.0001H52.0001V48H48V52.0001H54V56.0002H58.0001V52.0001H60V56.0002H64.0001V52.0001H66C69.3141 52.0001 72 49.3141 72 46.0001V42C71.9939 40.5199 71.438 39.094 70.44 37.9999C71.438 36.9059 71.9939 35.4799 72 33.9998V30V30ZM55.9999 28.0001H66C67.1039 28.0001 67.9999 28.8961 67.9999 30V34.0001C67.9999 35.104 67.1039 36 66 36H55.9999V28.0001V28.0001ZM67.9999 46.0001C67.9999 47.104 67.1039 48 66 48H55.9999V40.0001H66C67.1039 40.0001 67.9999 40.8961 67.9999 42V46.0001V46.0001Z" fill="white"/>
</g>
<defs>
<clipPath id="clip0">
<rect width="120" height="120" fill="white"/>
</clipPath>
</defs>
</svg>
