<svg width="120" height="120" viewBox="0 0 120 120" fill="none" xmlns="http://www.w3.org/2000/svg">
<path d="M90.5785 42.0076C90.5944 28.7548 79.8614 17.9979 66.6089 17.9838C53.3561 17.9698 42.5992 28.7009 42.5833 41.9534C42.5713 52.1323 48.9845 61.2135 58.5817 64.6051C58.5817 64.3731 58.5817 64.1612 58.5817 64.0051C58.5817 64.1671 58.5817 64.3792 58.5817 64.6051C63.7532 66.4649 69.4087 66.4649 74.5802 64.6051C84.161 61.2238 90.5705 52.1705 90.5785 42.0076ZM76.5797 38.0079C76.5797 40.2176 74.7897 42.0076 72.5801 42.0076C74.7897 42.0076 76.5797 43.7975 76.5797 46.0072V50.0068C76.5797 52.2165 74.7897 54.0064 72.5801 54.0064H68.5804H62.5811H60.5814V30.0087H62.5811H68.5804H72.5801C74.7897 30.0087 76.5797 31.7986 76.5797 34.0083V38.0079Z" fill="#1199FA"/>
<path d="M72.5799 30.0087H60.5813V42.0076H72.5801C74.7898 42.0076 76.5798 40.2177 76.5798 38.008V34.0083C76.5795 31.8005 74.7898 30.0087 72.5799 30.0087Z" fill="#1199FA"/>
<path d="M60.5813 54.0064H72.5801C74.7898 54.0064 76.5798 52.2165 76.5798 50.0068V46.0072C76.5798 43.7975 74.7898 42.0076 72.5801 42.0076H60.5813V54.0064Z" fill="#1199FA"/>
<path d="M66.5726 94.0105C68.7815 94.0105 70.5722 92.2198 70.5722 90.0109C70.5722 87.802 68.7815 86.0113 66.5726 86.0113C64.3637 86.0113 62.573 87.802 62.573 90.0109C62.573 92.2198 64.3637 94.0105 66.5726 94.0105Z" fill="white"/>
<path d="M82.5792 78.0041C81.5173 78.002 80.5015 78.4241 79.7515 79.176L80.5793 80.0038L79.7515 79.176C78.1896 80.7379 78.1896 83.2696 79.7515 84.8315C81.3134 86.3933 83.8451 86.3933 85.407 84.8315C86.9688 83.2696 86.9688 80.7379 85.407 79.176C84.657 78.426 83.6412 78.0041 82.5792 78.0041Z" fill="white"/>
<path d="M94.578 66.0052C92.3683 66.0052 90.5784 67.7952 90.5784 70.0049C90.5784 72.2146 92.3683 74.0045 94.578 74.0045C96.7877 74.0045 98.5776 72.2146 98.5776 70.0049C98.5837 67.8031 96.8038 66.0113 94.6019 66.0052C94.5939 66.0052 94.586 66.0052 94.578 66.0052Z" fill="white"/>
<path d="M46.5825 82.0037C46.5825 84.2134 48.3724 86.0033 50.5821 86.0033C52.7918 86.0033 54.5818 84.2134 54.5818 82.0037C54.5818 80.9418 54.1599 79.9239 53.4099 79.1741L52.5821 80.0019L53.4099 79.1741C51.848 77.6122 49.3163 77.6122 47.7544 79.1741C47.0046 79.9278 46.5825 80.9436 46.5825 82.0037Z" fill="white"/>
<path d="M38.5834 66.0052C36.3737 66.0052 34.5837 67.7952 34.5837 70.0049C34.5837 72.2146 36.3737 74.0045 38.5834 74.0045C40.793 74.0045 42.583 72.2146 42.583 70.0049C42.583 68.945 42.1611 67.9271 41.4111 67.1771C40.6613 66.4271 39.6453 66.0071 38.5834 66.0052Z" fill="white"/>
<path d="M90.5784 120H42.583C41.4791 120 40.5833 119.104 40.5833 118V100.002H18.5853C17.4814 100.002 16.5856 99.1061 16.5856 98.0024V76.0047H5.4066C4.30269 76.0026 3.40878 75.1047 3.41089 74.0008C3.41089 73.7188 3.47089 73.4408 3.58691 73.1849L17.0436 43.2959C20.7472 15.9342 45.9287 -3.24587 73.292 0.457728C100.655 4.16133 119.833 29.3429 116.132 56.7062C114.664 67.5531 109.676 77.6181 101.937 85.3574C99.1275 88.1711 95.9838 90.633 92.5802 92.6887V118.002C92.5781 119.106 91.6823 120 90.5784 120ZM44.5829 116H88.5787V91.5428C88.5766 90.8268 88.9586 90.1631 89.5786 89.8049C93.0602 87.8151 96.2599 85.3673 99.0937 82.5297C117.06 64.5714 117.066 35.4483 99.1078 17.4821C81.1497 -0.484227 52.0281 -0.490321 34.0599 17.468C26.8707 24.6554 22.2631 34.0203 20.9612 44.1015C20.9373 44.2974 20.8831 44.4875 20.8011 44.6675L8.50036 72.0046H18.5853C19.6892 72.0046 20.585 72.9006 20.585 74.0043V96.002H42.5828C43.6867 96.002 44.5825 96.8981 44.5825 98.002L44.5829 116Z" fill="#BFBFBF"/>
<path d="M60.5813 60.0057H64.581V56.0061H66.5809V60.0057H70.5805V56.0061H72.5804C75.894 56.0061 78.5797 53.3204 78.5797 50.0068V46.0072C78.5736 44.5273 78.0177 43.1014 77.02 42.0076C78.0179 40.9137 78.5739 39.4878 78.5797 38.0079V34.0083C78.5797 30.6947 75.894 28.009 72.5804 28.009H70.5805V24.0094H66.5809V28.009H64.581V24.0094H60.5813V28.009H54.582V32.0086H58.5816V52.0067H54.582V56.0063H60.5813V60.0057ZM62.581 32.0086H72.58C73.6839 32.0086 74.5797 32.9047 74.5797 34.0083V38.0079C74.5797 39.1119 73.6836 40.0076 72.58 40.0076H62.581V32.0086ZM62.581 44.0075H72.58C73.6839 44.0075 74.5797 44.9035 74.5797 46.0072V50.0068C74.5797 51.1107 73.6836 52.0065 72.58 52.0065H62.581V44.0075Z" fill="white"/>
<path d="M94.5782 64.0054C92.0364 63.9934 89.7707 65.6031 88.9426 68.005H84.579V60.7236C94.9401 50.7826 95.2799 34.3262 85.341 23.9651C75.4021 13.6041 58.9435 13.2643 48.5825 23.2032C38.2214 33.1421 37.8816 49.6007 47.8205 59.9617C48.0685 60.2216 48.3225 60.4757 48.5825 60.7236V68.005H44.2189C43.3929 65.6012 41.1251 63.9913 38.5833 64.0054C35.2697 63.9913 32.5718 66.6672 32.5599 69.9808C32.5479 73.2944 35.2217 75.9923 38.5353 76.0042C41.0869 76.0143 43.3667 74.4105 44.2168 72.0046H50.584C51.6879 72.0046 52.5837 71.1086 52.5837 70.0047V63.8793C53.8517 64.7031 55.1914 65.4151 56.5833 66.0051C56.5833 68.3108 56.5833 71.6425 56.5833 73.1762L53.1556 76.604C50.142 75.152 46.5223 76.4179 45.0685 79.4317C43.6146 82.4453 44.8824 86.065 47.8962 87.5188C50.9098 88.9708 54.5295 87.7047 55.9833 84.6911C56.7833 83.0292 56.7833 81.0934 55.9833 79.4317L59.997 75.418C60.373 75.044 60.583 74.5342 60.583 74.0043C60.583 74.0043 60.593 70.2848 60.593 67.2749C61.9048 67.589 63.2387 67.799 64.5826 67.9028V84.3712C61.4588 85.4751 59.821 88.9028 60.927 92.0264C62.0309 95.1501 65.4587 96.7879 68.5822 95.6819C71.7059 94.578 73.3438 91.1503 72.2378 88.0267C71.6338 86.3188 70.2899 84.9749 68.5822 84.3712V67.9028C69.9301 67.8008 71.2679 67.5908 72.5818 67.2768C72.5818 70.2604 72.5818 74.0041 72.5818 74.0041C72.5818 74.5361 72.7918 75.044 73.1678 75.4199L77.1814 79.4315C75.7295 82.4451 76.9956 86.0648 80.0092 87.5186C83.0228 88.9706 86.6425 87.7045 88.0963 84.6909C89.5483 81.6773 88.2824 78.0576 85.2686 76.6038C83.6068 75.8038 81.6709 75.8038 80.0092 76.6038L76.5814 73.176C76.5814 71.6341 76.5814 68.2865 76.5814 65.9987C77.9734 65.4088 79.3112 64.7008 80.581 63.879V70.0044C80.581 71.1083 81.4771 72.0044 82.581 72.0044H88.9482C90.0583 75.1201 93.4839 76.7458 96.5994 75.636C99.7152 74.526 101.341 71.1004 100.231 67.9848C99.3796 65.5954 97.1158 64.0014 94.5782 64.0054ZM38.5835 72.0046C37.4796 72.0046 36.5838 71.1086 36.5838 70.0047C36.5838 68.9008 37.4799 68.005 38.5835 68.005C39.1156 68.005 39.6253 68.2169 39.9994 68.593C40.3753 68.9671 40.5853 69.475 40.5832 70.0049C40.5835 71.1107 39.6874 72.0046 38.5835 72.0046ZM50.5824 84.0035C49.4785 84.0035 48.5827 83.1074 48.5827 82.0035C48.5827 80.8996 49.4787 80.0038 50.5824 80.0038C51.1144 80.0038 51.6242 80.2157 51.9983 80.5919C52.3742 80.9659 52.5842 81.4738 52.5821 82.0038C52.5823 83.1095 51.6863 84.0035 50.5824 84.0035ZM81.1653 80.5898C81.9472 79.8098 83.2131 79.8098 83.9931 80.5898C84.7731 81.3716 84.7731 82.6375 83.9931 83.4175C83.2131 84.1975 81.9453 84.1975 81.1653 83.4175C80.7894 83.0416 80.5794 82.5337 80.5794 82.0038C80.5775 81.4738 80.7894 80.9657 81.1653 80.5898ZM66.5809 92.0027C65.477 92.0027 64.5809 91.1067 64.5809 90.003C64.5809 88.8991 65.477 88.0031 66.5809 88.0031C67.6848 88.0031 68.5806 88.8991 68.5806 90.003C68.5806 91.1069 67.6848 92.0027 66.5809 92.0027ZM66.5809 64.0054C54.432 64.0054 44.5831 54.1564 44.5831 42.0076C44.5831 29.8587 54.432 20.0098 66.5809 20.0098C78.7297 20.0098 88.5786 29.8587 88.5786 42.0076C88.5648 54.1525 78.7236 63.9915 66.5809 64.0054ZM94.5782 72.0046C93.4743 72.0046 92.5785 71.1086 92.5785 70.0047C92.5785 68.9008 93.4745 68.005 94.5782 68.005C95.6821 68.005 96.5779 68.901 96.5779 70.0047C96.5779 71.1088 95.6821 72.0046 94.5782 72.0046Z" fill="#BFBFBF"/>
</svg>
