<svg width="120" height="120" viewBox="0 0 120 120" fill="none" xmlns="http://www.w3.org/2000/svg">
<g clip-path="url(#clip0)">
<path d="M60.0026 22.0214C42.3369 22.0214 28.0179 36.3406 28.0179 54.0061C28.0179 71.6715 42.3371 85.9908 60.0026 85.9908C77.668 85.9908 91.9873 71.6715 91.9873 54.0061C91.9873 36.3406 77.6662 22.0214 60.0026 22.0214ZM60.0026 77.9945C46.7549 77.9945 36.0139 67.2537 36.0139 54.0058C36.0139 40.7579 46.7547 30.0171 60.0026 30.0171C73.2505 30.0171 83.9913 40.7579 83.9913 54.0058C83.9913 67.2537 73.2503 77.9945 60.0026 77.9945Z" fill="#FFC107"/>
<path d="M60.0025 30.0173C46.7548 30.0173 36.0138 40.7581 36.0138 54.006C36.0138 67.254 46.7546 77.9947 60.0025 77.9947C73.2504 77.9947 83.9912 67.254 83.9912 54.006C83.9912 40.7581 73.2502 30.0173 60.0025 30.0173ZM69.9977 50.008C69.9977 52.217 68.2085 54.006 65.9997 54.006C68.2087 54.006 69.9977 55.7953 69.9977 58.004V62.002C69.9977 64.211 68.2085 66 65.9997 66H62.0017H56.0043L56.0542 71.9973L56.0043 66H54.0053V42.0118H56.0043L56.0542 36.0146L56.0043 42.0118H62.0015H65.9995C68.2085 42.0118 69.9975 43.801 69.9975 46.0098V50.008H69.9977Z" fill="#FFC107"/>
<path d="M65.9995 42.0118H54.0053V54.0061H65.9995C68.2085 54.0061 69.9975 52.2168 69.9975 50.0081V46.0101C69.9978 43.8008 68.2067 42.0118 65.9995 42.0118Z" fill="#FFC107"/>
<path d="M54.0053 66.0003H65.9995C68.2085 66.0003 69.9975 64.2111 69.9975 62.0023V58.0043C69.9975 55.7953 68.2083 54.0063 65.9995 54.0063H54.0053V66.0003Z" fill="#FFC107"/>
<path d="M60.0105 117.983C62.2185 117.983 64.0085 116.193 64.0085 113.985C64.0085 111.777 62.2185 109.987 60.0105 109.987C57.8024 109.987 56.0125 111.777 56.0125 113.985C56.0125 116.193 57.8024 117.983 60.0105 117.983Z" fill="black"/>
<path d="M87.9972 117.983C90.2052 117.983 91.9952 116.193 91.9952 113.985C91.9952 111.777 90.2052 109.987 87.9972 109.987C85.7892 109.987 83.9992 111.777 83.9992 113.985C83.9992 116.193 85.7892 117.983 87.9972 117.983Z" fill="black"/>
<path d="M113.985 117.983C116.193 117.983 117.983 116.193 117.983 113.985C117.983 111.777 116.193 109.987 113.985 109.987C111.777 109.987 109.987 111.777 109.987 113.985C109.987 116.193 111.777 117.983 113.985 117.983Z" fill="black"/>
<path d="M32.0238 117.983C34.2318 117.983 36.0218 116.193 36.0218 113.985C36.0218 111.777 34.2318 109.987 32.0238 109.987C29.8157 109.987 28.0258 111.777 28.0258 113.985C28.0258 116.193 29.8157 117.983 32.0238 117.983Z" fill="black"/>
<path d="M6.03609 117.983C8.24412 117.983 10.0341 116.193 10.0341 113.985C10.0341 111.777 8.24412 109.987 6.03609 109.987C3.82805 109.987 2.03809 111.777 2.03809 113.985C2.03809 116.193 3.82805 117.983 6.03609 117.983Z" fill="black"/>
<path d="M60.0027 79.9938C45.6494 79.9938 34.015 68.3593 34.015 54.0061C34.015 39.6528 45.6494 28.0184 60.0027 28.0184C74.3559 28.0184 85.9904 39.6528 85.9904 54.0061C85.9723 68.3513 74.3477 79.9757 60.0027 79.9938ZM60.0027 32.0166C47.8584 32.0166 38.0132 41.8618 38.0132 54.0061C38.0132 66.1503 47.8584 75.9955 60.0027 75.9955C72.1469 75.9955 81.9921 66.1503 81.9921 54.0061C81.9762 41.8658 72.1408 32.0304 60.0027 32.0166Z" fill="black"/>
<path d="M71.9968 46.0098C71.9968 42.6974 69.3121 40.0126 65.9996 40.0126H64.0006V36.0146H60.0026V40.0126H58.0036V36.0146H54.0534L54.0215 40.0126H48.0084V44.0106H52.0064V64.0011H48.0084V67.9991H54.0215L54.0534 72.0132L58.0036 71.9973V67.9993H60.0026V71.9973H64.0006V67.9993H65.9996C69.3121 67.9993 71.9968 65.3145 71.9968 62.0021V58.0041C71.9907 56.5247 71.435 55.0994 70.4375 54.0061C71.435 52.9127 71.9907 51.4872 71.9968 50.0081V46.0098ZM56.0044 44.0108H65.9996C67.1031 44.0108 67.9986 44.9064 67.9986 46.0098V50.0078C67.9986 51.1113 67.1031 52.0068 65.9996 52.0068H56.0044V44.0108ZM67.9988 62.0023C67.9988 63.1057 67.1033 64.0013 65.9998 64.0013H56.0044V56.0051H65.9996C67.1031 56.0051 67.9986 56.9006 67.9986 58.0041V62.0023H67.9988Z" fill="black"/>
<path d="M60.0026 87.99C41.2335 87.99 26.0187 72.7752 26.0187 54.006C26.0187 35.2369 41.2335 20.0221 60.0026 20.0221C78.7717 20.0221 93.9866 35.2369 93.9866 54.006C93.9645 72.7651 78.7617 87.9679 60.0026 87.99ZM60.0026 24.0203C43.4425 24.0203 30.0169 37.4459 30.0169 54.006C30.0169 70.5662 43.4425 83.9917 60.0026 83.9917C76.5627 83.9917 89.9883 70.5662 89.9883 54.006C89.9684 37.452 76.5548 24.0384 60.0026 24.0203Z" fill="#BFBFBF"/>
<path d="M62.0016 108.348V93.987C62.0016 92.8835 61.1061 91.988 60.0026 91.988C58.8992 91.988 58.0036 92.8835 58.0036 93.987V108.348C54.881 109.452 53.2439 112.878 54.3495 116.001C55.4529 119.123 58.8793 120.76 62.0019 119.655C65.1245 118.551 66.7616 115.125 65.656 112.002C65.0523 110.295 63.7088 108.952 62.0016 108.348ZM60.0026 115.976C58.8992 115.976 58.0036 115.081 58.0036 113.977C58.0036 112.874 58.8992 111.978 60.0026 111.978C61.1061 111.978 62.0016 112.874 62.0016 113.977C62.0016 115.081 61.1061 115.976 60.0026 115.976Z" fill="#BFBFBF"/>
<path d="M87.9894 107.98C87.0978 107.984 86.2182 108.188 85.4166 108.58L85.4047 108.562L75.9951 99.1566V91.988C75.9951 90.8845 75.0996 89.989 73.9961 89.989C72.8927 89.989 71.9971 90.8845 71.9971 91.988V99.9842C71.9971 100.514 72.2071 101.024 72.5828 101.397L82.5781 111.393L82.5961 111.405C82.2042 112.206 81.9963 113.086 81.9924 113.977C81.9924 117.29 84.6772 119.975 87.9896 119.975C91.302 119.975 93.9868 117.29 93.9868 113.977C93.9868 110.665 91.2997 107.98 87.9894 107.98ZM87.9894 115.976C86.8859 115.976 85.9904 115.081 85.9904 113.977C85.9904 112.874 86.8859 111.978 87.9894 111.978C89.0928 111.978 89.9884 112.874 89.9884 113.977C89.9884 115.081 89.0928 115.976 87.9894 115.976Z" fill="#BFBFBF"/>
<path d="M113.977 107.98C113.085 107.984 112.206 108.188 111.404 108.58L111.392 108.562L91.9873 89.1614V79.9937C91.9873 78.8903 91.0918 77.9948 89.9883 77.9948C88.8849 77.9948 87.9893 78.8903 87.9893 79.9937V89.989C87.9893 90.5187 88.1993 91.0285 88.575 91.4023L108.565 111.393L108.584 111.405C108.192 112.206 107.984 113.086 107.98 113.977C107.98 117.29 110.665 119.975 113.977 119.975C117.289 119.975 119.974 117.29 119.974 113.977C119.974 110.665 117.287 107.98 113.977 107.98ZM113.977 115.976C112.873 115.976 111.978 115.081 111.978 113.977C111.978 112.874 112.873 111.978 113.977 111.978C115.08 111.978 115.976 112.874 115.976 113.977C115.976 115.081 115.08 115.976 113.977 115.976Z" fill="#BFBFBF"/>
<path d="M46.0092 89.989C44.9057 89.989 44.0101 90.8845 44.0101 91.988V99.1566L34.6006 108.566L34.5887 108.584C33.7871 108.192 32.9075 107.984 32.0159 107.98C28.7035 107.98 26.0187 110.665 26.0187 113.978C26.0187 117.29 28.7035 119.975 32.0159 119.975C35.3284 119.975 38.0131 117.29 38.0131 113.978C38.0092 113.086 37.8053 112.206 37.4134 111.405L37.4314 111.393L47.4267 101.398C47.8005 101.022 48.0084 100.514 48.0084 99.9844V91.9882C48.0084 90.8824 47.1126 89.989 46.0092 89.989ZM32.0159 115.976C30.9125 115.976 30.0169 115.081 30.0169 113.977C30.0169 112.874 30.9125 111.978 32.0159 111.978C33.1194 111.978 34.0149 112.874 34.0149 113.977C34.0149 115.081 33.1194 115.976 32.0159 115.976Z" fill="#BFBFBF"/>
<path d="M11.4398 111.393L31.4302 91.4023C31.806 91.0285 32.016 90.5187 32.016 89.989V79.9937C32.016 78.8903 31.1204 77.9948 30.017 77.9948C28.9135 77.9948 28.018 78.8903 28.018 79.9937V89.1614L8.61319 108.566L8.60124 108.584C7.79967 108.192 6.92005 107.984 6.02848 107.98C2.71604 107.98 0.03125 110.665 0.03125 113.978C0.03125 117.29 2.71604 119.975 6.02848 119.975C9.34093 119.975 12.0257 117.29 12.0257 113.978C12.0217 113.086 11.8178 112.207 11.4259 111.405L11.4398 111.393ZM6.02825 115.976C4.9248 115.976 4.02925 115.081 4.02925 113.977C4.02925 112.874 4.9248 111.978 6.02825 111.978C7.1317 111.978 8.02725 112.874 8.02725 113.977C8.02725 115.081 7.1317 115.976 6.02825 115.976Z" fill="#BFBFBF"/>
<path d="M107.336 42.8253C109.995 33.252 104.389 23.3346 94.816 20.6758C91.7476 19.8243 88.5071 19.8002 85.4264 20.6099C82.452 6.56865 68.6605 -2.40517 54.6192 0.569542C44.564 2.69862 36.7077 10.5547 34.5789 20.6099C24.9455 18.107 15.108 23.8884 12.6053 33.5199C11.8117 36.5745 11.8338 39.7829 12.6693 42.8253C3.18173 45.778 -2.11378 55.8651 0.841011 65.3506C3.18384 72.871 10.1465 77.9945 18.0229 77.9926H24.0202C25.1236 77.9926 26.0192 77.0971 26.0192 75.9936C26.0192 74.8902 25.1236 73.9946 24.0202 73.9946H18.0225C10.2941 73.9867 4.03721 67.7136 4.04518 59.9852C4.05315 53.1944 8.93475 47.3891 15.6236 46.2177C16.7111 46.0297 17.4408 44.9964 17.2549 43.9089C17.2289 43.7549 17.1848 43.607 17.1229 43.4631C16.3893 41.7399 16.0155 39.8848 16.0235 38.0117C16.0314 30.2873 22.2926 24.0264 30.0167 24.0185C31.8638 24.0145 33.695 24.3822 35.3961 25.102C36.4136 25.5297 37.585 25.0539 38.0148 24.0365C38.0889 23.8605 38.1367 23.6746 38.1587 23.4848C39.5561 11.4205 50.4668 2.77268 62.5311 4.17004C72.6724 5.34356 80.6705 13.3438 81.8459 23.4848C81.9698 24.5824 82.9594 25.3699 84.0567 25.2459C84.2466 25.2239 84.4324 25.1758 84.6085 25.102C86.3096 24.3822 88.1408 24.0145 89.9879 24.0185C97.7122 24.0264 103.973 30.2876 103.981 38.0117C103.989 39.8848 103.615 41.7399 102.882 43.4631C102.448 44.4786 102.92 45.6519 103.935 46.0858C104.077 46.1457 104.227 46.1917 104.381 46.2177C111.993 47.5511 117.083 54.8036 115.75 62.4159C114.578 69.1048 108.773 73.9864 101.982 73.9944H95.9849C94.8814 73.9944 93.9859 74.8899 93.9859 75.9934C93.9859 77.0968 94.8814 77.9924 95.9849 77.9924H101.982C111.919 77.9945 119.975 69.9423 119.978 60.0049C119.98 52.1289 114.856 45.1663 107.336 42.8253Z" fill="#BFBFBF"/>
</g>
<defs>
<clipPath id="clip0">
<rect width="120" height="120" fill="white"/>
</clipPath>
</defs>
</svg>
