<svg width="100" height="100" viewBox="0 0 100 100" fill="none" xmlns="http://www.w3.org/2000/svg">
<g clip-path="url(#clip0)">
<path d="M95.4538 50.4194V36.3646C95.4538 31.5988 91.7571 27.7229 87.0865 27.3471L74.0342 4.54913C72.8246 2.44064 70.8715 0.933636 68.5344 0.307865C66.2083 -0.313645 63.776 0.0127701 61.6941 1.22447L16.9499 27.2738H9.09144C4.07782 27.2738 0.000610352 31.3508 0.000610352 36.3646V90.9092C0.000610352 95.9228 4.0776 100 9.09144 100H86.363C91.3766 100 95.4538 95.923 95.4538 90.9092V76.8544C98.0935 75.913 99.9991 73.414 99.9991 70.455V56.8188C99.9991 53.8598 98.0935 51.3607 95.4538 50.4194ZM63.9822 5.15274C65.012 4.55126 66.2128 4.39146 67.358 4.69785C68.5188 5.0085 69.4865 5.7587 70.088 6.80847L74.5166 14.5438C72.4967 15.4416 70.3409 15.9104 68.1815 15.9104C63.3004 15.9104 58.8278 13.6951 55.8255 9.90132L63.9822 5.15274ZM51.8774 12.1999C55.7326 17.3971 61.6675 20.4559 68.1815 20.4559C71.1303 20.4559 74.0538 19.7607 76.7704 18.4804L81.8049 27.274H25.9839L51.8774 12.1999ZM90.9083 90.9092C90.9083 93.4148 88.8686 95.4545 86.363 95.4545H9.09144C6.5858 95.4545 4.54613 93.4148 4.54613 90.9092V36.3646C4.54613 33.859 6.5858 31.8193 9.09144 31.8193H86.363C88.8686 31.8193 90.9083 33.859 90.9083 36.3646V50.0007H77.2722C69.7527 50.0007 63.636 56.1174 63.636 63.6369C63.636 71.1564 69.7527 77.273 77.2722 77.273H90.9083V90.9092V90.9092ZM95.4538 70.455C95.4538 71.7088 94.4352 72.7277 93.1811 72.7277H77.2722C72.2585 72.7277 68.1813 68.6507 68.1813 63.6369C68.1813 58.6233 72.2583 54.546 77.2722 54.546H93.1811C94.4349 54.546 95.4538 55.5647 95.4538 56.8188V70.455V70.455Z" fill="#BFBFBF"/>
<path d="M77.2722 59.0916C74.7665 59.0916 72.7269 61.1312 72.7269 63.6369C72.7269 66.1425 74.7665 68.1822 77.2722 68.1822C79.7778 68.1822 81.8175 66.1425 81.8175 63.6369C81.8177 61.1312 79.778 59.0916 77.2722 59.0916Z" fill="#BFBFBF"/>
<path d="M45.3207 63.0115C46.9279 61.3289 47.9168 59.0482 47.9168 56.5418C47.9168 53.299 46.2598 50.4383 43.7502 48.7543V45.0834C43.7502 43.9318 42.8184 43 41.6668 43C40.5152 43 39.5834 43.9318 39.5834 45.0834V47.2721C39.2371 47.2332 38.8984 47.1668 38.5418 47.1668H35.4168V45.0834C35.4168 43.9318 34.485 43 33.3334 43C32.1818 43 31.25 43.9318 31.25 45.0834V47.1668H27.0834C25.9318 47.1668 25 48.0986 25 49.2502C25 50.4018 25.9318 51.3336 27.0834 51.3336H29.1668V76.3336H27.0834C25.9318 76.3336 25 77.2654 25 78.417C25 79.5686 25.9318 80.5004 27.0834 80.5004H31.25V82.5834C31.25 83.735 32.1818 84.6668 33.3334 84.6668C34.485 84.6668 35.4168 83.735 35.4168 82.5834V80.5H39.5834V82.5834C39.5834 83.735 40.5152 84.6668 41.6668 84.6668C42.8184 84.6668 43.7502 83.735 43.7502 82.5834V79.924C47.3789 78.6299 50.0002 75.1934 50.0002 71.125C50 67.6645 48.116 64.6371 45.3207 63.0115ZM33.3334 51.3334H38.5418C41.4145 51.3334 43.75 53.6689 43.75 56.5418C43.75 59.4145 41.4145 61.7502 38.5416 61.7502H33.3332V51.3334H33.3334ZM40.625 76.3334H33.3334V65.9168H40.625C43.4977 65.9168 45.8334 68.2523 45.8334 71.1252C45.8334 73.9979 43.4977 76.3334 40.625 76.3334Z" fill="#FFC107"/>
</g>
<defs>
<clipPath id="clip0">
<rect width="100" height="100" fill="white"/>
</clipPath>
</defs>
</svg>
