<svg width="120" height="120" viewBox="0 0 120 120" fill="none" xmlns="http://www.w3.org/2000/svg">
<path d="M40.1935 70.0657C30.3191 70.0657 22.3157 78.0688 22.3157 87.9435C22.3157 97.8181 30.3188 105.821 40.1935 105.821C50.0681 105.821 58.0713 97.8181 58.0713 87.9435C58.0713 78.0688 50.0681 70.0657 40.1935 70.0657ZM48.1392 91.9164C48.1392 94.1113 46.3613 95.8892 44.1664 95.8892H40.1935H36.2206V79.998H40.1935H44.1664C46.3613 79.998 48.1392 81.7757 48.1392 83.9709C48.1392 86.1658 46.3613 87.9437 44.1664 87.9437C46.3615 87.9435 48.1392 89.7233 48.1392 91.9164Z" fill="white"/>
<path d="M48.1393 83.9706C48.1393 81.7757 46.3613 79.9977 44.1664 79.9977H36.2206V87.9435H44.1664C46.3615 87.9435 48.1393 86.1655 48.1393 83.9706Z" fill="#f5a623"/>
<path d="M36.2209 95.889H44.1666C46.3616 95.889 48.1395 94.1111 48.1395 91.9162C48.1395 89.7213 46.3616 87.9433 44.1666 87.9433H36.2209V95.889Z" fill="#f5a623"/>
<path d="M69.9899 40.2695C69.9899 50.1439 77.9931 58.1473 87.8677 58.1473C97.7424 58.1473 105.746 50.1441 105.746 40.2695C105.746 30.3948 97.7424 22.3917 87.8677 22.3917C77.9931 22.3917 69.9899 30.3969 69.9899 40.2695ZM95.8133 36.2966C95.8133 38.4915 94.0355 40.2695 91.8404 40.2695C94.0353 40.2695 95.8133 42.0474 95.8133 44.2424C95.8133 46.4373 94.0355 48.2152 91.8404 48.2152H87.8675H83.8946V32.324H87.8675H91.8404C94.0355 32.3237 95.8133 34.1036 95.8133 36.2966Z" fill="white"/>
<path d="M83.8949 32.3237V40.2695H91.8406C94.0356 40.2695 95.8135 38.4918 95.8135 36.2966C95.8135 34.1017 94.0358 32.3237 91.8406 32.3237H83.8949Z" fill="#f5a623"/>
<path d="M83.8949 48.215H91.8406C94.0356 48.215 95.8135 46.4372 95.8135 44.2421C95.8135 42.0472 94.0358 40.2692 91.8406 40.2692H83.8949V48.215Z" fill="#f5a623"/>
<path d="M33.4695 27.9278L27.8521 33.5453L33.4695 27.9278Z" fill="#f5a623"/>
<path d="M47.5157 27.9278L43.3023 23.7126L47.5157 27.9278Z" fill="#f5a623"/>
<path d="M44.1663 78.0114H42.18V76.0251H38.2071V78.0114H32.2479V81.9843H34.2342V93.9029H32.2479V97.8758H38.2071V99.8621H42.18V97.8758H44.1663C47.4438 97.8896 50.1117 95.2459 50.1255 91.9681C50.1314 90.4803 49.5792 89.0422 48.5761 87.9437C50.785 85.5222 50.6121 81.7698 48.1908 79.5611C47.0925 78.5596 45.6562 78.0053 44.1663 78.0114ZM38.2071 81.9843H44.1663C45.2627 81.9843 46.1526 82.8742 46.1526 83.9706C46.1526 85.067 45.2627 85.9569 44.1663 85.9569H38.2071V81.9843ZM44.1663 93.9027H38.2071V89.9298H44.1663C45.2627 89.9298 46.1526 90.8197 46.1526 91.9161C46.1529 93.0128 45.263 93.9027 44.1663 93.9027Z" fill="#231F20"/>
<path d="M40.1935 68.0794C29.2224 68.0794 20.3293 76.9725 20.3293 87.9435C20.3293 98.9146 29.2224 107.808 40.1935 107.808C51.1645 107.808 60.0576 98.9146 60.0576 87.9435C60.0459 76.9784 51.1606 68.0911 40.1935 68.0794ZM40.1935 103.835C31.4176 103.835 24.3022 96.7194 24.3022 87.9435C24.3022 79.1676 31.4176 72.0523 40.1935 72.0523C48.9694 72.0523 56.0848 79.1676 56.0848 87.9435C56.0749 96.7176 48.9656 103.825 40.1935 103.835Z" fill="#231F20"/>
<path d="M91.8404 30.3374H89.8541V28.3511H85.8812V30.3374H79.922V34.3103H81.9083V46.2289H79.922V50.2018H85.8812V52.1881H89.8541V50.2018H91.8404C95.1179 50.2156 97.7858 47.5719 97.7996 44.2941C97.8054 42.8063 97.2533 41.3682 96.2501 40.2697C98.4591 37.8481 98.2861 34.0958 95.8648 31.8871C94.7665 30.8856 93.3303 30.3313 91.8404 30.3374ZM85.8812 34.31H91.8404C92.9368 34.31 93.8267 35.2 93.8267 36.2964C93.8267 37.3928 92.9368 38.2827 91.8404 38.2827H85.8812V34.31ZM91.8404 46.2287H85.8812V42.2558H91.8404C92.9368 42.2558 93.8267 43.1457 93.8267 44.2421C93.8269 45.3387 92.937 46.2287 91.8404 46.2287Z" fill="#231F20"/>
<path d="M87.8675 20.4053C76.8965 20.4053 68.0034 29.2984 68.0034 40.2695C68.0034 51.2405 76.8965 60.1336 87.8675 60.1336C98.8386 60.1336 107.732 51.2405 107.732 40.2695C107.72 29.3043 98.8346 20.4171 87.8675 20.4053ZM87.8675 56.1607C79.0916 56.1607 71.9762 49.0454 71.9762 40.2695C71.9762 31.4936 79.0916 24.3782 87.8675 24.3782C96.6434 24.3782 103.759 31.4936 103.759 40.2695C103.749 49.0435 96.6397 56.1509 87.8675 56.1607Z" fill="#231F20"/>
<path d="M112.811 35.5735C111.715 35.5775 110.821 34.6935 110.817 33.5949C110.813 32.6891 111.423 31.8967 112.297 31.666L116.134 30.639C117.185 30.3271 118.291 30.925 118.605 31.9759C118.917 33.0266 118.319 34.1331 117.268 34.4469C117.235 34.4567 117.199 34.4668 117.165 34.4748L113.327 35.5037C113.159 35.5517 112.986 35.5735 112.811 35.5735Z" fill="#f5a623"/>
<path d="M106.127 23.9966C105.031 23.9966 104.141 23.1067 104.141 22.0103C104.141 21.4839 104.349 20.9793 104.723 20.606L107.533 17.7972C108.34 17.0543 109.597 17.106 110.34 17.9144C111.039 18.6752 111.039 19.8452 110.34 20.6041L107.533 23.4147C107.16 23.788 106.655 23.9988 106.127 23.9966Z" fill="#f5a623"/>
<path d="M108.936 63.3237C108.409 63.3237 107.903 63.1151 107.531 62.7417L104.722 59.9349C103.946 59.1582 103.946 57.9008 104.722 57.124C105.499 56.3473 106.757 56.3473 107.533 57.124L110.34 59.9349C111.115 60.7116 111.115 61.969 110.34 62.7436C109.967 63.1172 109.462 63.3258 108.936 63.3237Z" fill="#f5a623"/>
<path d="M116.649 49.969C116.474 49.969 116.301 49.9451 116.134 49.8994L112.301 48.8724C111.24 48.5883 110.612 47.4996 110.896 46.4391C111.18 45.3783 112.269 44.7507 113.329 45.0347L117.167 46.0636C118.228 46.3477 118.856 47.4364 118.571 48.4969C118.339 49.365 117.551 49.9709 116.653 49.9688L116.649 49.969Z" fill="#f5a623"/>
<path d="M47.9049 118.711C47.007 118.711 46.2205 118.107 45.988 117.239L44.9609 113.402C44.6769 112.341 45.3045 111.252 46.3653 110.968C47.4261 110.684 48.5145 111.312 48.7986 112.373L49.8256 116.211C50.1097 117.269 49.482 118.36 48.4212 118.644C48.2546 118.689 48.0816 118.711 47.9049 118.711Z" fill="#f5a623"/>
<path d="M61.2616 110.998C60.7352 110.998 60.2287 110.789 59.8572 110.416L57.0485 107.609C56.2718 106.832 56.2718 105.575 57.0485 104.798C57.8252 104.021 59.0826 104.021 59.8593 104.798L62.6662 107.609C63.4408 108.386 63.4408 109.643 62.6662 110.418C62.2947 110.789 61.7882 111 61.2618 111V110.998H61.2616Z" fill="#f5a623"/>
<path d="M32.4824 118.711C32.3096 118.711 32.1367 118.687 31.9679 118.644C30.9092 118.36 30.2795 117.271 30.5635 116.21L31.5906 112.373C31.8746 111.312 32.9633 110.684 34.0238 110.968C35.0846 111.252 35.7123 112.341 35.4282 113.401L34.3993 117.239C34.1668 118.107 33.3802 118.711 32.4824 118.711Z" fill="#f5a623"/>
<path d="M19.1256 110.998C18.0292 110.998 17.1393 110.108 17.1393 109.011C17.1393 108.485 17.3479 107.98 17.7212 107.607L20.5281 104.798C21.3048 104.022 22.5622 104.022 23.3389 104.798C24.1157 105.575 24.1157 106.832 23.3389 107.609L20.5281 110.416C20.1566 110.789 19.652 110.998 19.1256 110.998Z" fill="#f5a623"/>
<path d="M118.169 109.818L50.3243 41.9738L55.9439 36.3542C56.7185 35.5796 56.7185 34.3201 55.9439 33.5455L54.5395 32.1411L62.8427 23.8379C70.1646 16.5041 78.8235 10.6422 88.3503 6.56808L93.2469 4.47044C94.2561 4.03731 94.7227 2.86943 94.2899 1.86232C94.0079 1.2049 93.3941 0.749982 92.6828 0.670529L90.174 0.392327C75.1745 -1.31392 60.2208 3.93208 49.5736 14.6329L43.3022 20.9038L41.8979 19.4994C41.1233 18.7248 39.8637 18.7248 39.0891 19.4994L33.4695 25.119L28.6724 20.3219C27.8957 19.5473 26.6404 19.5473 25.8636 20.3219L20.2441 25.9414C19.4694 26.7182 19.4694 27.9735 20.2441 28.7502L25.0412 33.5455L19.4216 39.1651C18.647 39.9397 18.647 41.1992 19.4216 41.9738L20.826 43.3782L14.557 49.6493C3.85802 60.2965 -1.38797 75.2523 0.316397 90.2497L0.594599 92.7584C0.693974 93.6563 1.38514 94.3735 2.27905 94.5045C2.37631 94.5184 2.47381 94.5245 2.57108 94.5245C3.36373 94.5245 4.08068 94.0517 4.39451 93.3226L6.49215 88.426C10.5663 78.8971 16.4282 70.2365 23.762 62.9144L32.0652 54.6113L33.4695 56.0156C34.2442 56.7902 35.5037 56.7902 36.2783 56.0156L41.8979 50.4L109.833 118.335C110.975 119.356 112.453 119.923 113.987 119.925C115.59 119.93 117.131 119.299 118.268 118.166C119.414 117.02 120.04 115.455 119.998 113.834C119.97 112.301 119.309 110.847 118.169 109.818ZM27.2699 24.5368L30.6587 27.9278L27.8518 30.7346L24.4609 27.3458L27.2699 24.5368ZM52.3824 17.4414C60.8248 8.9594 72.2723 4.14841 84.2385 4.057C75.242 8.25839 67.05 14.001 60.034 21.029L51.7308 29.3321L46.1112 23.7147L52.3824 17.4414ZM20.9533 60.1097C13.9253 67.1257 8.18269 75.3177 3.9813 84.3142C4.07271 72.348 8.88371 60.9002 17.3657 52.4581L23.6387 46.1869L29.2562 51.8065L20.9533 60.1097ZM34.8739 51.8065L23.6387 40.5694L40.4935 23.7147L51.7306 34.9498L34.8739 51.8065ZM115.453 115.34C114.655 116.115 113.399 116.156 112.551 115.436L44.7068 47.5934L47.5177 44.7825L115.453 112.718C115.809 113.028 116.017 113.473 116.029 113.946C116.037 114.47 115.828 114.975 115.453 115.34Z" fill="#231F20"/>
</svg>
