<svg width="120" height="120" viewBox="0 0 120 120" fill="none" xmlns="http://www.w3.org/2000/svg">
<path d="M60 3.75C44.4675 3.75 31.875 16.3425 31.875 31.875C31.875 42.3094 37.5712 51.3956 46.0087 56.25H73.9913C82.4288 51.3956 88.125 42.3094 88.125 31.875C88.125 16.3425 75.5325 3.75 60 3.75ZM71.25 37.5C71.25 40.6069 68.7319 43.125 65.625 43.125H54.375V31.875V20.625H65.625C68.7319 20.625 71.25 23.1431 71.25 26.25C71.25 29.3569 68.7319 31.875 65.625 31.875C68.7319 31.875 71.25 34.3931 71.25 37.5Z" fill="#FFC107"/>
<path d="M41.25 31.875H37.5C37.5 44.2819 47.5931 54.375 60 54.375V50.625C49.6613 50.625 41.25 42.2137 41.25 31.875Z" fill="black"/>
<path d="M78.75 31.875H82.5C82.5 19.4681 72.4069 9.375 60 9.375V13.125C70.3387 13.125 78.75 21.5363 78.75 31.875Z" fill="black"/>
<path d="M112.5 35.625H89.7562C89.9137 34.3894 90 33.1369 90 31.875C90 15.3338 76.5413 1.875 60 1.875C43.4588 1.875 30 15.3338 30 31.875C30 33.1369 30.0862 34.3894 30.2437 35.625H13.125C6.92062 35.625 1.875 40.6706 1.875 46.875V108.75C1.875 113.919 6.08063 118.125 11.25 118.125H108.75C113.919 118.125 118.125 113.919 118.125 108.75V41.25C118.125 38.1488 115.601 35.625 112.5 35.625ZM112.5 39.375C113.533 39.375 114.375 40.2169 114.375 41.25V54.72C113.786 54.51 113.16 54.375 112.5 54.375H79.8356C84.3281 50.4 87.5288 45.1575 89.0306 39.375H112.5ZM60 5.625C74.475 5.625 86.25 17.4 86.25 31.875C86.25 41.0681 81.375 49.6387 73.5056 54.375H60H46.4944C38.625 49.6387 33.75 41.0681 33.75 31.875C33.75 17.4 45.525 5.625 60 5.625ZM13.125 39.375H30.9694C32.4713 45.1575 35.6719 50.4 40.1644 54.375H13.125C8.98875 54.375 5.625 51.0112 5.625 46.875C5.625 42.7388 8.98875 39.375 13.125 39.375ZM114.375 91.875H99.375C95.2387 91.875 91.875 88.5113 91.875 84.375C91.875 80.2387 95.2387 76.875 99.375 76.875H114.375V91.875ZM114.375 73.125H99.375C93.1706 73.125 88.125 78.1706 88.125 84.375C88.125 90.5794 93.1706 95.625 99.375 95.625H114.375V108.75C114.375 111.851 111.851 114.375 108.75 114.375H11.25C8.14875 114.375 5.625 111.851 5.625 108.75V55.2375C7.61812 57.0262 10.2413 58.125 13.125 58.125H112.5C113.533 58.125 114.375 58.9669 114.375 60V73.125Z" fill="#BFBFBF"/>
<path d="M93.75 84.375C93.75 87.4762 96.2737 90 99.375 90C102.476 90 105 87.4762 105 84.375C105 81.2737 102.476 78.75 99.375 78.75C96.2737 78.75 93.75 81.2737 93.75 84.375ZM101.25 84.375C101.25 85.4081 100.408 86.25 99.375 86.25C98.3419 86.25 97.5 85.4081 97.5 84.375C97.5 83.3419 98.3419 82.5 99.375 82.5C100.408 82.5 101.25 83.3419 101.25 84.375Z" fill="#BFBFBF"/>
<ellipse cx="62.5" cy="31.5" rx="13.5" ry="15.5" fill="#FFC107"/>
<path d="M69 25.0556C69 22.3859 66.8736 20.2223 64.25 20.2223H62.6667V17H59.5V20.2223H57.9167V17H54.75V20.2223H50V23.4445H53.1667V39.5555H50V42.7777H54.75V46H57.9167V42.7777H59.5V46H62.6667V42.7777H64.25C66.8736 42.7777 69 40.6141 69 37.9444V34.7222C68.9952 33.5299 68.5551 32.3812 67.765 31.4999C68.5551 30.6186 68.9952 29.4699 69 28.2776V25.0556V25.0556ZM56.3333 23.4445H64.25C65.1239 23.4445 65.8333 24.1663 65.8333 25.0556V28.2778C65.8333 29.1671 65.1239 29.8889 64.25 29.8889H56.3333V23.4445V23.4445ZM65.8333 37.9444C65.8333 38.8337 65.1239 39.5555 64.25 39.5555H56.3333V33.1111H64.25C65.1239 33.1111 65.8333 33.8329 65.8333 34.7222V37.9444V37.9444Z" fill="black"/>
</svg>
