<svg width="120" height="120" viewBox="0 0 120 120" fill="none" xmlns="http://www.w3.org/2000/svg">
<path d="M64.12 16V18H60.12C59.0155 18 58.12 18.8955 58.12 20C58.12 21.1045 59.0155 22 60.12 22H62.12V50H60.12C59.0155 50 58.12 50.8955 58.12 52C58.12 53.1045 59.0155 54 60.12 54H64.12V56C64.12 57.1045 65.0155 58 66.12 58C67.2245 58 68.12 57.1045 68.12 56V54H72.12V56C72.12 57.1045 73.0155 58 74.12 58C75.2245 58 76.12 57.1045 76.12 56V54C81.6263 54.0158 86.1028 49.565 86.1188 44.0588C86.128 40.8785 84.6195 37.8848 82.058 36C86.493 32.7365 87.4425 26.4955 84.1788 22.0607C82.2938 19.4992 79.3 17.9907 76.12 18V16C76.12 14.8955 75.2245 14 74.12 14C73.0155 14 72.12 14.8955 72.12 16V18H68.12V16C68.12 14.8955 67.2245 14 66.12 14C65.0155 14 64.12 14.8955 64.12 16ZM66.12 22H76.12C79.4338 22 82.12 24.6862 82.12 28C82.12 31.3138 79.4338 34 76.12 34H66.12V22ZM66.12 38H76.12C79.4338 38 82.12 40.6862 82.12 44C82.12 47.3138 79.4338 50 76.12 50H66.12V38Z" fill="#FFC107"/>
<path d="M69.4339 61.868C67.6277 61.682 65.8459 61.3072 64.1179 60.75C63.1312 60.4887 62.1062 61.0125 61.7394 61.9652C61.3427 62.9963 61.857 64.1535 62.8879 64.55C64.8832 65.1935 66.9404 65.6258 69.0259 65.84C69.0924 65.8478 69.1592 65.8518 69.2259 65.852L69.2339 65.868C70.3384 65.9233 71.2787 65.0725 71.3339 63.968C71.3892 62.8635 70.5384 61.9233 69.4339 61.868Z" fill="#FFC107"/>
<path d="M94.7199 21.458C94.7177 21.458 94.7154 21.4575 94.7129 21.4575C94.7112 21.4575 94.7097 21.458 94.7079 21.458H94.7199Z" fill="#FFC107"/>
<path d="M95.84 25.334C96.5857 26.9888 97.155 28.7178 97.538 30.492C97.7365 31.412 98.5497 32.069 99.491 32.07C99.634 32.0695 99.7765 32.054 99.9162 32.024C100.995 31.7905 101.681 30.727 101.448 29.648C101.005 27.599 100.348 25.602 99.4882 23.69C99.0342 22.6828 97.8495 22.234 96.8422 22.688C95.8345 23.142 95.386 24.3268 95.84 25.334Z" fill="#FFC107"/>
<path d="M89.4539 16.616C90.8074 17.8277 92.0314 19.177 93.106 20.642C93.4817 21.1537 94.0784 21.456 94.7129 21.4575C95.1357 21.4562 95.5474 21.3212 95.8884 21.0712C96.7794 20.4185 96.9727 19.167 96.3197 18.276C95.0837 16.5885 93.6762 15.0335 92.1197 13.636C92.0932 13.6107 92.0659 13.5865 92.0379 13.5627C91.1949 12.8492 89.9329 12.954 89.2192 13.7972C88.5057 14.6405 88.6107 15.9022 89.4539 16.616Z" fill="#FFC107"/>
<path d="M89.548 55.32C88.197 56.5372 86.7222 57.6097 85.148 58.52C84.5322 58.8772 84.1527 59.5347 84.1515 60.2465C84.1495 61.351 85.0435 62.248 86.148 62.25L86.14 62.244C86.4982 62.2505 86.8515 62.1592 87.162 61.98C88.9747 60.93 90.6727 59.6932 92.228 58.29C93.0482 57.55 93.113 56.2852 92.373 55.465C91.633 54.6447 90.368 54.58 89.548 55.32Z" fill="#FFC107"/>
<path d="M80.182 60.734C78.4563 61.295 76.6765 61.6737 74.872 61.864C73.8647 61.9745 73.0992 62.8208 73.09 63.834C73.08 64.9385 73.9672 65.842 75.072 65.852V65.846C75.14 65.846 75.21 65.842 75.288 65.838C77.372 65.619 79.4273 65.182 81.42 64.534C81.473 64.519 81.5255 64.502 81.5773 64.4828C82.6125 64.0975 83.1393 62.946 82.754 61.9108C82.3688 60.8755 81.2173 60.3487 80.182 60.734Z" fill="#FFC107"/>
<path d="M98.1199 36C98.1197 37.8165 97.9314 39.6283 97.5579 41.406C97.5579 41.406 97.5579 41.406 97.5579 41.4063C97.3299 42.487 98.0212 43.548 99.1019 43.776C99.2382 43.8038 99.3769 43.8178 99.5159 43.818H99.5199C100.463 43.8158 101.277 43.1548 101.472 42.232C101.903 40.1828 102.12 38.0943 102.12 36V35.884C102.12 35.871 102.12 35.8583 102.119 35.8455C102.093 34.7678 101.198 33.9155 100.12 33.942C99.0047 33.9703 98.1162 34.8845 98.1199 36Z" fill="#FFC107"/>
<path d="M98.524 45.558C97.515 45.108 96.332 45.561 95.882 46.57C95.142 48.2293 94.2303 49.8065 93.162 51.276C92.914 51.6173 92.78 52.0283 92.7798 52.4503C92.7788 53.5548 93.6735 54.451 94.778 54.452C95.4193 54.4523 96.0215 54.145 96.398 53.626C97.6303 51.9318 98.682 50.113 99.536 48.2C99.986 47.191 99.533 46.008 98.524 45.558Z" fill="#FFC107"/>
<path d="M59.148 58.554C57.5742 57.643 56.0997 56.5705 54.748 55.354C54.733 55.34 54.7175 55.3262 54.702 55.3127C53.8687 54.5875 52.6055 54.6752 51.8802 55.5085C51.155 56.3417 51.2427 57.605 52.076 58.3302C53.6347 59.7292 55.3345 60.9625 57.148 62.0102C57.4517 62.1865 57.7967 62.279 58.148 62.2782V62.2862C58.8625 62.2862 59.5228 61.905 59.88 61.2862C60.4323 60.3295 60.1045 59.1062 59.148 58.554Z" fill="#FFC107"/>
<path d="M44.736 43.88C44.8772 43.8803 45.018 43.8653 45.1562 43.8358C46.2365 43.605 46.925 42.542 46.694 41.462C46.3155 39.6868 46.1232 37.877 46.12 36.062C46.12 34.9575 45.2245 34.062 44.12 34.062C43.0155 34.062 42.12 34.9575 42.12 36.062C42.123 38.156 42.345 40.244 42.782 42.292C42.9782 43.2148 43.7925 43.875 44.736 43.876V43.88V43.88Z" fill="#FFC107"/>
<path d="M50.673 54.1088C51.5648 53.457 51.7595 52.2058 51.1078 51.314C50.0368 49.8483 49.1225 48.2743 48.3798 46.618C47.921 45.6505 46.7818 45.2158 45.795 45.632C44.7773 46.0613 44.3003 47.2345 44.7298 48.252C45.5863 50.1643 46.6405 51.9815 47.8758 53.674C48.253 54.1903 48.8543 54.495 49.4938 54.494C49.918 54.4938 50.3308 54.359 50.673 54.1088Z" fill="#FFC107"/>
<path d="M44.306 32.196C44.441 32.2237 44.5782 32.2377 44.716 32.238H44.72C45.6645 32.2355 46.4785 31.5725 46.672 30.648C47.0445 28.872 47.6022 27.1397 48.336 25.48C48.3432 25.464 48.3505 25.448 48.3575 25.4317C48.792 24.4162 48.321 23.2407 47.3057 22.8062C46.2902 22.3717 45.1147 22.8427 44.6802 23.8582C43.8315 25.776 43.1867 27.7777 42.7562 29.8302C42.5305 30.9115 43.2245 31.9707 44.306 32.196Z" fill="#FFC107"/>
<path d="M80.07 11.234C81.7982 11.7902 83.4627 12.5277 85.036 13.434C85.34 13.6095 85.685 13.7012 86.036 13.7L86.03 13.694C86.7472 13.6952 87.41 13.3125 87.7675 12.6905C88.318 11.7327 87.9877 10.5102 87.03 9.96C85.2115 8.9175 83.289 8.0675 81.294 7.424C80.242 7.086 79.115 7.665 78.777 8.717C78.439 9.769 79.0177 10.896 80.07 11.234Z" fill="#FFC107"/>
<path d="M69.106 10.16C69.1827 10.1605 69.2597 10.1565 69.336 10.148C71.142 9.95878 72.9627 9.95328 74.77 10.132C75.869 10.2425 76.8495 9.44103 76.96 8.34203C77.0705 7.24303 76.269 6.26253 75.17 6.15203C73.0867 5.94478 70.9877 5.95153 68.906 6.17203C67.8987 6.28253 67.1332 7.12878 67.124 8.14203C67.114 9.24653 68.0015 10.15 69.106 10.16Z" fill="#FFC107"/>
<path d="M49.4239 21.6C50.0659 21.601 50.6692 21.2937 51.0459 20.774C52.1112 19.302 53.3269 17.9455 54.6739 16.726C54.6764 16.7237 54.6789 16.7215 54.6814 16.7192C55.4982 15.9755 55.5572 14.7105 54.8134 13.894C54.0697 13.0772 52.8047 13.0182 51.9882 13.762C50.4359 15.168 49.0345 16.7317 47.8062 18.428C47.5602 18.7682 47.4274 19.1775 47.4267 19.5975C47.4249 20.702 48.3192 21.5985 49.4239 21.6Z" fill="#FFC107"/>
<path d="M58.054 13.786C58.4095 13.787 58.7588 13.693 59.066 13.514C60.6358 12.601 62.2968 11.855 64.022 11.288C64.0378 11.283 64.0538 11.2777 64.0695 11.2725C65.1145 10.9147 65.6718 9.77748 65.314 8.73248C64.9563 7.68748 63.819 7.13023 62.774 7.48798C60.7827 8.14148 58.8655 9.00223 57.054 10.056C56.4383 10.4132 56.0587 11.0707 56.0575 11.7825C56.0555 12.887 56.9493 13.784 58.054 13.786Z" fill="#FFC107"/>
<path d="M72.12 72C91.9927 71.9767 108.097 55.8727 108.12 36C108.12 16.1178 92.0022 0 72.12 0C52.2377 0 36.12 16.1178 36.12 36C36.12 55.8822 52.2377 72 72.12 72ZM72.12 4C89.7845 4.021 104.099 18.3355 104.12 36C104.12 53.673 89.793 68 72.12 68C54.447 68 40.12 53.673 40.12 36C40.12 18.327 54.4467 4 72.12 4Z" fill="#BFBFBF"/>
<path d="M118.81 81.8C116.582 77.997 111.711 76.692 107.88 78.872L86.872 91C86.464 87.6845 84.066 84.958 80.83 84.13L62.006 80.8C59.3132 80.1863 56.719 79.2008 54.298 77.872C49.3047 75.2738 43.7487 73.944 38.12 74C32.5875 73.9213 27.1205 75.2035 22.2 77.734C20.3 78.734 18.2442 79.4048 16.12 79.718V74C16.12 72.8955 15.2245 72 14.12 72H2.11999C1.01549 72 0.119995 72.8955 0.119995 74V118C0.119995 119.105 1.01549 120 2.11999 120H14.12C15.2245 120 16.12 119.105 16.12 118V112H21.18C22.9782 112.002 24.7727 112.166 26.542 112.488L66.342 119.71C67.736 119.954 69.1717 119.703 70.4 119L115.88 92.74C118.368 91.322 119.897 88.6717 119.88 85.808C119.88 84.4015 119.511 83.0195 118.81 81.8ZM12.12 116H4.12V76H12.12V116ZM113.88 89.268L68.39 115.534C67.979 115.765 67.5012 115.85 67.036 115.772L27.256 108.552C25.2512 108.188 23.2177 108.003 21.18 108H16.12V83.734C18.9025 83.399 21.601 82.5615 24.084 81.262C28.431 79.058 33.2467 77.9387 38.12 78C43.0765 77.9398 47.9717 79.0978 52.376 81.372C55.1497 82.8928 58.1235 84.0158 61.21 84.708L79.96 88.032C82.0942 88.6025 83.362 90.795 82.7915 92.9293C82.7902 92.9335 82.7892 92.9378 82.788 92.942C82.699 93.273 82.5645 93.59 82.388 93.884V93.9H82.378C81.4425 95.424 79.6332 96.1738 77.894 95.758C77.819 95.7378 77.743 95.7222 77.666 95.712L52.406 92.012C51.3182 91.82 50.2807 92.546 50.0887 93.6338C49.8967 94.7215 50.6227 95.759 51.7105 95.951C51.7487 95.9577 51.7875 95.9635 51.826 95.968L76.98 99.654C77.611 99.8092 78.2582 99.8878 78.908 99.888H78.936C81.5727 99.8873 84.0382 98.5813 85.52 96.4L109.872 82.336C111.782 81.227 114.23 81.8767 115.339 83.7875C115.694 84.3987 115.881 85.0933 115.88 85.8C115.889 87.2325 115.124 88.5585 113.88 89.268Z" fill="#BFBFBF"/>
</svg>
