<svg width="120" height="120" viewBox="0 0 120 120" fill="none" xmlns="http://www.w3.org/2000/svg">
<path d="M90.5783 42.0076C90.5943 28.7548 79.8613 17.9979 66.6087 17.9838C53.356 17.9698 42.5991 28.7009 42.5831 41.9534C42.5712 52.1323 48.9844 61.2135 58.5816 64.6051C58.5816 64.3731 58.5816 64.1612 58.5816 64.0051C58.5816 64.1671 58.5816 64.3792 58.5816 64.6051C63.7531 66.4649 69.4086 66.4649 74.5801 64.6051C84.1609 61.2238 90.5704 52.1705 90.5783 42.0076ZM76.5796 38.0079C76.5796 40.2176 74.7896 42.0076 72.5799 42.0076C74.7896 42.0076 76.5796 43.7975 76.5796 46.0072V50.0068C76.5796 52.2165 74.7896 54.0064 72.5799 54.0064H68.5803H62.581H60.5813V30.0087H62.581H68.5803H72.5799C74.7896 30.0087 76.5796 31.7986 76.5796 34.0083V38.0079Z" fill="white"/>
<path d="M72.58 30.0087H60.5814V42.0076H72.5803C74.79 42.0076 76.5799 40.2177 76.5799 38.008V34.0083C76.5796 31.8005 74.79 30.0087 72.58 30.0087Z" fill="#44a692"/>
<path d="M60.5814 54.0064H72.5803C74.79 54.0064 76.5799 52.2165 76.5799 50.0068V46.0072C76.5799 43.7975 74.79 42.0076 72.5803 42.0076H60.5814V54.0064Z" fill="#44a692"/>
<path d="M66.5727 94.0105C68.7817 94.0105 70.5724 92.2198 70.5724 90.0109C70.5724 87.802 68.7817 86.0113 66.5727 86.0113C64.3638 86.0113 62.5731 87.802 62.5731 90.0109C62.5731 92.2198 64.3638 94.0105 66.5727 94.0105Z" fill="#44a692"/>
<path d="M82.5791 78.0041C81.5172 78.002 80.5014 78.4241 79.7514 79.176L80.5792 80.0038L79.7514 79.176C78.1895 80.7379 78.1895 83.2696 79.7514 84.8315C81.3132 86.3933 83.845 86.3933 85.4068 84.8315C86.9687 83.2696 86.9687 80.7379 85.4068 79.176C84.6568 78.426 83.6411 78.0041 82.5791 78.0041Z" fill="#44a692"/>
<path d="M94.578 66.0052C92.3683 66.0052 90.5784 67.7952 90.5784 70.0049C90.5784 72.2146 92.3683 74.0045 94.578 74.0045C96.7877 74.0045 98.5776 72.2146 98.5776 70.0049C98.5837 67.8031 96.8038 66.0113 94.6019 66.0052C94.5939 66.0052 94.586 66.0052 94.578 66.0052Z" fill="#44a692"/>
<path d="M46.5826 82.0037C46.5826 84.2134 48.3726 86.0033 50.5823 86.0033C52.792 86.0033 54.5819 84.2134 54.5819 82.0037C54.5819 80.9418 54.16 79.9239 53.41 79.1741L52.5822 80.0019L53.41 79.1741C51.8481 77.6122 49.3164 77.6122 47.7545 79.1741C47.0048 79.9278 46.5826 80.9436 46.5826 82.0037Z" fill="#44a692"/>
<path d="M38.5834 66.0052C36.3737 66.0052 34.5837 67.7952 34.5837 70.0049C34.5837 72.2146 36.3737 74.0045 38.5834 74.0045C40.793 74.0045 42.583 72.2146 42.583 70.0049C42.583 68.945 42.1611 67.9271 41.4111 67.1771C40.6613 66.4271 39.6453 66.0071 38.5834 66.0052Z" fill="#44a692"/>
<path d="M90.5784 120H42.583C41.4791 120 40.5833 119.104 40.5833 118V100.002H18.5853C17.4814 100.002 16.5856 99.1061 16.5856 98.0024V76.0047H5.4066C4.30269 76.0026 3.40878 75.1047 3.41089 74.0008C3.41089 73.7188 3.47089 73.4408 3.58691 73.1849L17.0436 43.2959C20.7472 15.9342 45.9287 -3.24587 73.292 0.457728C100.655 4.16133 119.833 29.3429 116.132 56.7062C114.664 67.5531 109.676 77.6181 101.937 85.3574C99.1275 88.1711 95.9838 90.633 92.5802 92.6887V118.002C92.5781 119.106 91.6823 120 90.5784 120ZM44.5829 116H88.5787V91.5428C88.5766 90.8268 88.9586 90.163 89.5786 89.8049C93.0602 87.8151 96.2599 85.3673 99.0937 82.5297C117.06 64.5714 117.066 35.4483 99.1078 17.4821C81.1497 -0.484227 52.0281 -0.490321 34.0599 17.468C26.8707 24.6554 22.2631 34.0203 20.9612 44.1015C20.9373 44.2974 20.8831 44.4875 20.8011 44.6675L8.50036 72.0046H18.5853C19.6892 72.0046 20.585 72.9006 20.585 74.0043V96.002H42.5828C43.6867 96.002 44.5825 96.8981 44.5825 98.002L44.5829 116Z" fill="black"/>
<path d="M60.5813 60.0057H64.581V56.0061H66.5809V60.0057H70.5805V56.0061H72.5804C75.894 56.0061 78.5797 53.3204 78.5797 50.0068V46.0072C78.5736 44.5273 78.0177 43.1014 77.02 42.0076C78.0179 40.9137 78.5739 39.4878 78.5797 38.0079V34.0083C78.5797 30.6947 75.894 28.009 72.5804 28.009H70.5805V24.0094H66.5809V28.009H64.581V24.0094H60.5813V28.009H54.582V32.0086H58.5816V52.0067H54.582V56.0063H60.5813V60.0057ZM62.581 32.0086H72.58C73.6839 32.0086 74.5797 32.9047 74.5797 34.0083V38.0079C74.5797 39.1119 73.6836 40.0076 72.58 40.0076H62.581V32.0086ZM62.581 44.0075H72.58C73.6839 44.0075 74.5797 44.9035 74.5797 46.0072V50.0068C74.5797 51.1107 73.6836 52.0065 72.58 52.0065H62.581V44.0075Z" fill="black"/>
<path d="M94.5781 64.0054C92.0363 63.9934 89.7706 65.6031 88.9425 68.005H84.5789V60.7236C94.9399 50.7826 95.2798 34.3262 85.3409 23.9651C75.4019 13.6041 58.9434 13.2643 48.5823 23.2032C38.2213 33.1421 37.8815 49.6007 47.8204 59.9617C48.0684 60.2216 48.3224 60.4757 48.5823 60.7236V68.005H44.2187C43.3928 65.6012 41.125 63.9913 38.5832 64.0054C35.2696 63.9913 32.5717 66.6672 32.5597 69.9808C32.5478 73.2944 35.2215 75.9923 38.5351 76.0042C41.0868 76.0143 43.3666 74.4105 44.2166 72.0046H50.5839C51.6878 72.0046 52.5836 71.1086 52.5836 70.0047V63.8793C53.8516 64.7031 55.1913 65.4151 56.5832 66.0051C56.5832 68.3108 56.5832 71.6425 56.5832 73.1762L53.1555 76.604C50.1419 75.152 46.5222 76.4179 45.0684 79.4317C43.6145 82.4453 44.8823 86.065 47.8961 87.5188C50.9097 88.9708 54.5294 87.7047 55.9832 84.6911C56.7831 83.0292 56.7831 81.0934 55.9832 79.4317L59.9969 75.418C60.3728 75.044 60.5828 74.5342 60.5828 74.0043C60.5828 74.0043 60.5929 70.2848 60.5929 67.2749C61.9047 67.589 63.2385 67.799 64.5825 67.9028V84.3712C61.4587 85.4751 59.8209 88.9028 60.9269 92.0264C62.0308 95.1501 65.4585 96.7879 68.5821 95.6819C71.7058 94.578 73.3436 91.1503 72.2376 88.0267C71.6336 86.3188 70.2897 84.9749 68.5821 84.3712V67.9028C69.93 67.8008 71.2678 67.5908 72.5817 67.2768C72.5817 70.2604 72.5817 74.0041 72.5817 74.0041C72.5817 74.5361 72.7917 75.044 73.1676 75.4199L77.1813 79.4315C75.7294 82.4451 76.9954 86.0648 80.009 87.5186C83.0226 88.9706 86.6423 87.7045 88.0962 84.6909C89.5481 81.6773 88.2823 78.0576 85.2684 76.6038C83.6067 75.8038 81.6708 75.8038 80.009 76.6038L76.5813 73.176C76.5813 71.6341 76.5813 68.2865 76.5813 65.9987C77.9733 65.4088 79.3111 64.7008 80.5809 63.879V70.0044C80.5809 71.1083 81.4769 72.0044 82.5808 72.0044H88.9481C90.0581 75.1202 93.4838 76.7458 96.5993 75.636C99.7151 74.526 101.341 71.1004 100.231 67.9848C99.3795 65.5954 97.1156 64.0014 94.5781 64.0054ZM38.5834 72.0046C37.4795 72.0046 36.5837 71.1086 36.5837 70.0047C36.5837 68.9008 37.4797 68.005 38.5834 68.005C39.1154 68.005 39.6252 68.2169 39.9993 68.593C40.3752 68.9671 40.5852 69.475 40.5831 70.0049C40.5833 71.1107 39.6873 72.0046 38.5834 72.0046ZM50.5823 84.0034C49.4784 84.0034 48.5826 83.1074 48.5826 82.0035C48.5826 80.8996 49.4786 80.0038 50.5823 80.0038C51.1143 80.0038 51.6241 80.2157 51.9981 80.5919C52.3741 80.9659 52.5841 81.4738 52.582 82.0038C52.5822 83.1095 51.6862 84.0034 50.5823 84.0034ZM81.1652 80.5898C81.9471 79.8098 83.213 79.8098 83.993 80.5898C84.773 81.3717 84.773 82.6375 83.993 83.4175C83.213 84.1975 81.9452 84.1975 81.1652 83.4175C80.7893 83.0416 80.5793 82.5337 80.5793 82.0038C80.5774 81.4738 80.7893 80.9657 81.1652 80.5898ZM66.5807 92.0027C65.4768 92.0027 64.5808 91.1067 64.5808 90.003C64.5808 88.8991 65.4768 88.0031 66.5807 88.0031C67.6846 88.0031 68.5804 88.8991 68.5804 90.003C68.5804 91.1069 67.6846 92.0027 66.5807 92.0027ZM66.5807 64.0054C54.4319 64.0054 44.583 54.1564 44.583 42.0076C44.583 29.8587 54.4319 20.0098 66.5807 20.0098C78.7296 20.0098 88.5785 29.8587 88.5785 42.0076C88.5647 54.1525 78.7235 63.9915 66.5807 64.0054ZM94.5781 72.0046C93.4742 72.0046 92.5784 71.1086 92.5784 70.0047C92.5784 68.9008 93.4744 68.005 94.5781 68.005C95.682 68.005 96.5778 68.901 96.5778 70.0047C96.5778 71.1088 95.682 72.0046 94.5781 72.0046Z" fill="black"/>
</svg>
