<svg width="120" height="120" viewBox="0 0 120 120" fill="none" xmlns="http://www.w3.org/2000/svg">
<g clip-path="url(#clip0)">
<path d="M104.584 11.1041L77.9471 4.27497C66.1719 1.2525 53.8214 1.2525 42.0463 4.27497L15.4135 11.1041C13.3918 11.4391 11.9479 13.2442 12.0641 15.2898L14.2923 58.8942C15.2851 78.3549 25.6402 96.1307 42.0803 106.592L59.9986 117.994L77.9169 106.592C94.357 96.1307 104.712 78.3549 105.705 58.8942L107.933 15.2898C108.05 13.2442 106.606 11.4391 104.584 11.1041ZM63.9679 10.1474C62.6482 10.0673 61.3225 10.0251 59.9988 10.0251C61.3225 10.0251 62.6482 10.0673 63.9679 10.1474ZM20.2451 18.1459L20.4458 21.8844L20.2451 18.1459ZM46.3885 99.8214C32.1506 90.746 23.1774 75.3468 22.3048 58.4853L20.8447 29.8589L22.3048 58.4853C23.1774 75.3486 32.1506 90.7479 46.3885 99.8214L59.9988 108.486L46.3885 99.8214ZM70.0269 102.102L73.6091 99.8214L70.0269 102.102ZM59.9988 85.9043C43.3841 85.9043 29.9142 72.4344 29.9142 55.8197C29.9142 39.205 43.3841 25.7351 59.9988 25.7351C76.6135 25.7351 90.0834 39.205 90.0834 55.8197C90.0834 72.4344 76.6135 85.9043 59.9988 85.9043ZM97.6926 58.4853C96.9625 72.5608 90.5746 85.7438 79.9829 95.0418C90.5746 85.7438 96.9625 72.5608 97.6926 58.4853L99.7482 18.1459L75.9535 12.0388C74.6659 11.7079 73.3703 11.4191 72.0667 11.1684C73.3703 11.4191 74.6659 11.71 75.9535 12.0388L99.7482 18.1459L97.6926 58.4853Z" fill="white"/>
<path d="M90.0832 55.8197C90.0832 39.205 76.6133 25.7351 59.9986 25.7351C43.3839 25.7351 29.914 39.205 29.914 55.8197C29.914 72.4344 43.3839 85.9043 59.9986 85.9043C76.6133 85.9043 90.0832 72.4365 90.0832 55.8197ZM59.9988 79.8875C46.7075 79.8875 35.9313 69.1113 35.9313 55.82C35.9313 42.5286 46.7075 31.7524 59.9988 31.7524C73.2901 31.7524 84.0664 42.5286 84.0664 55.82C84.0664 69.1113 73.2901 79.8875 59.9988 79.8875Z" fill="white"/>
<path d="M59.9989 31.7522C46.7076 31.7522 35.9313 42.5284 35.9313 55.8197C35.9313 69.111 46.7076 79.8873 59.9989 79.8873C73.2902 79.8873 84.0664 69.111 84.0664 55.8197C84.0664 42.5284 73.2902 31.7522 59.9989 31.7522ZM70.027 51.8084C70.027 54.0247 68.232 55.8197 66.0157 55.8197C68.232 55.8197 70.027 57.6148 70.027 59.831V63.8423C70.027 66.0586 68.232 67.8536 66.0157 67.8536H62.0044H55.9876H53.9821V43.7861H55.9876H62.0044H66.0157C68.232 43.7861 70.027 45.5811 70.027 47.7974V51.8084Z" fill="white"/>
<path d="M66.0157 43.7861H53.9818V55.82H66.0157C68.2319 55.82 70.027 54.0249 70.027 51.8087V47.7974C70.027 45.583 68.2319 43.7861 66.0157 43.7861Z" fill="#339966"/>
<path d="M53.982 67.8536H66.0159C68.2321 67.8536 70.0272 66.0585 70.0272 63.8423V59.831C70.0272 57.6148 68.2321 55.8197 66.0159 55.8197H53.982V67.8536Z" fill="#339966"/>
<path d="M59.9988 120C59.6177 120 59.2446 119.892 58.9219 119.687L41.0036 108.283C24.0298 97.4605 13.3319 79.1009 12.2889 58.9966L10.0586 15.3922C9.88423 12.3297 12.0461 9.62804 15.0728 9.12672L41.5469 2.32545C53.6529 -0.775311 66.3445 -0.775311 78.4506 2.32545L105.083 9.1607C108.048 9.71218 110.131 12.3897 109.939 15.3983L107.709 58.9969C106.666 79.1014 95.9678 97.461 78.9941 108.283L61.0758 119.687C60.7549 119.892 60.3799 120 59.9988 120ZM59.9988 4.01434C54.1123 4.01434 48.2499 4.75636 42.5498 6.22049L15.9149 13.0475C14.8358 13.1598 14.0296 14.0905 14.0697 15.1735L16.296 58.792C17.2686 77.5988 27.2728 94.7751 43.1514 104.9L59.9986 115.616L76.8458 104.9C92.7243 94.7751 102.729 77.5988 103.701 58.792L105.928 15.1876V15.1735C105.986 14.1507 105.264 13.25 104.255 13.0818L77.4479 6.21252C71.7458 4.75027 65.8853 4.01223 59.9988 4.01434Z" fill="#231F20"/>
<path d="M20.4357 23.8901C19.3667 23.8922 18.4843 23.0539 18.4302 21.9868L18.2415 18.2483C18.1853 17.1411 19.0398 16.1985 20.147 16.1425C21.2541 16.0862 22.1968 16.9407 22.2528 18.0479L22.4412 21.7864C22.4975 22.8936 21.647 23.8362 20.5419 23.8922C20.5419 23.8922 20.5419 23.8922 20.5398 23.8922L20.4357 23.8901Z" fill="#231F20"/>
<path d="M59.9988 110.491C59.6178 110.491 59.2446 110.383 58.9238 110.178L45.3135 101.514C30.5299 92.0917 21.2119 76.1028 20.3033 58.5935L18.8431 29.9672C18.7869 28.86 19.6414 27.9173 20.7486 27.8613C21.8558 27.8053 22.7984 28.6596 22.8544 29.7668L24.3125 58.3912C25.1508 74.6047 33.7772 89.4103 47.4655 98.1388L61.0758 106.801C62.0065 107.403 62.2732 108.644 61.6716 109.575C61.3045 110.142 60.6767 110.487 59.9988 110.491Z" fill="#339966"/>
<path d="M70.027 104.107C68.9198 104.109 68.0193 103.213 68.0172 102.106C68.0151 101.418 68.3662 100.778 68.9479 100.409L72.5319 98.1386C73.4587 97.5329 74.702 97.7936 75.3076 98.7203C75.9133 99.647 75.6526 100.89 74.7259 101.496C74.7119 101.504 74.6999 101.512 74.6858 101.522L71.1037 103.794C70.7812 103.999 70.4081 104.107 70.027 104.107Z" fill="#231F20"/>
<path d="M79.9829 97.0497C78.8757 97.0497 77.9774 96.1511 77.9774 95.0442C77.9774 94.4665 78.226 93.9171 78.6613 93.536C88.8298 84.5829 94.9711 71.9132 95.699 58.3833L97.6727 19.6745L75.4541 13.9823C74.2087 13.6614 72.9531 13.3806 71.6875 13.1399C70.5984 12.9313 69.8863 11.8804 70.0949 10.7913C70.3035 9.70213 71.3545 8.9901 72.4436 9.19869C73.7894 9.45744 75.1272 9.75627 76.4549 10.0952L100.252 16.2022C101.176 16.4389 101.804 17.2953 101.756 18.2481L99.6963 58.5874C98.9121 73.1985 92.2835 86.881 81.3045 96.5522C80.9396 96.873 80.4683 97.0497 79.9829 97.0497Z" fill="#339966"/>
<path d="M63.97 12.155H63.8437C62.564 12.0749 61.2825 12.0348 59.9988 12.0348C58.8916 12.0348 57.9933 11.1362 57.9933 10.0293C57.9933 8.92233 58.8919 8.02374 59.9988 8.02374C61.3647 8.02374 62.7286 8.06593 64.0942 8.15007C65.2014 8.18405 66.0719 9.11077 66.0377 10.2179C66.0037 11.3251 65.077 12.1956 63.9698 12.1614L63.97 12.155Z" fill="#231F20"/>
<path d="M59.9988 81.893C45.5985 81.893 33.9255 70.2203 33.9255 55.8197C33.9255 41.4191 45.5983 29.7466 59.9988 29.7466C74.3994 29.7466 86.0721 41.4194 86.0721 55.82C86.056 70.2142 74.3912 81.8771 59.9988 81.893ZM59.9988 33.7579C47.8147 33.7579 37.9368 43.6356 37.9368 55.82C37.9368 68.0043 47.8145 77.882 59.9988 77.882C72.1832 77.882 82.0609 68.0043 82.0609 55.82C82.0468 43.6417 72.1771 33.7718 59.9988 33.7579Z" fill="#231F20"/>
<path d="M72.0328 47.7974C72.0328 44.4739 69.3391 41.7805 66.0159 41.7805H64.0104V37.7692H59.9991V41.7805H57.9936V37.7692H53.9823V41.7805H47.9655V45.7918H51.9768V65.8481H47.9655V69.8594H53.9823V73.8707H57.9936V69.8594H59.9991V73.8707H64.0104V69.8594H66.0159C69.3394 69.8594 72.0328 67.1657 72.0328 63.8425V59.8312C72.0267 58.347 71.4691 56.9171 70.4683 55.82C71.4691 54.7228 72.0267 53.2929 72.0328 51.8087V47.7974ZM55.9876 45.7916H66.0157C67.1229 45.7916 68.0212 46.6902 68.0212 47.7971V51.8084C68.0212 52.9156 67.1227 53.8139 66.0157 53.8139H55.9876V45.7916ZM68.0215 63.8423C68.0215 64.9495 67.1229 65.8478 66.0159 65.8478H55.9878V57.8252H66.0159C67.1231 57.8252 68.0215 58.7238 68.0215 59.8308V63.8423Z" fill="#231F20"/>
<path d="M59.9988 87.9098C42.2751 87.9098 27.9087 73.5435 27.9087 55.8197C27.9087 38.0959 42.2751 23.7296 59.9988 23.7296C77.7226 23.7296 92.089 38.0959 92.089 55.8197C92.0688 73.5336 77.7125 87.8899 59.9988 87.9098ZM59.9988 27.7408C44.4913 27.7408 31.92 40.3122 31.92 55.8197C31.92 71.3272 44.4913 83.8985 59.9988 83.8985C75.5064 83.8985 88.0777 71.3272 88.0777 55.8197C88.0617 40.3201 75.5003 27.7589 59.9988 27.7408Z" fill="#231F20"/>
</g>
<defs>
<clipPath id="clip0">
<rect width="120" height="120" fill="white"/>
</clipPath>
</defs>
</svg>
