<svg width="120" height="120" viewBox="0 0 120 120" fill="none" xmlns="http://www.w3.org/2000/svg">
<g clip-path="url(#clip0)">
<path d="M114 94.0001C116.21 94.0001 118 92.2101 118 90V82.0001H1.99994V90C1.99994 92.2099 3.78986 94.0001 6.00002 94.0001H114Z" fill="black"/>
<path d="M36 110L31.9999 118H88.0001L84 110H66H54H36Z" fill="black"/>
<path d="M96 37.9999C96 18.1179 79.882 1.99994 60 1.99994C40.118 1.99994 24 18.1179 24 37.9999C24 57.882 40.118 73.9999 60 73.9999C79.882 73.9999 96 57.882 96 37.9999ZM31.9999 37.9999C31.9999 22.5359 44.5359 9.99986 60 9.99986C75.4641 9.99986 88.0001 22.5359 88.0001 37.9999C88.0001 53.464 75.4641 66 60 66C44.5359 66 31.9999 53.464 31.9999 37.9999Z" fill="white"/>
<path d="M88 38C88 22.5359 75.464 9.99988 59.9999 9.99988C44.5359 9.99988 31.9999 22.5361 31.9999 38C31.9999 53.4638 44.5359 66 59.9999 66C75.464 66 88 53.464 88 38ZM55.9999 56V50H53.9999V26H55.9999H61.9999H65.9999C68.2099 26 70 27.7899 70 30V34.0001C70 36.21 68.2101 38.0002 65.9999 38.0002C68.2099 38.0002 70 39.7901 70 42.0003V46.0003C70 48.2103 68.2101 50.0004 65.9999 50.0004H61.9999H55.9999V56Z" fill="white"/>
<path d="M70.0001 34.0001V30C70.0001 27.7901 68.2102 25.9999 66 25.9999H54V37.9999H66C68.2099 37.9999 70.0001 36.21 70.0001 34.0001Z" fill="#339966"/>
<path d="M66 49.9999C68.2099 49.9999 70.0001 48.21 70.0001 45.9999V42C70.0001 39.7901 68.2102 37.9999 66 37.9999H54V49.9999H66Z" fill="#339966"/>
<path d="M114 16.0001H97.9999C96.896 16.0001 96 16.8961 96 18C96 19.1039 96.896 19.9999 97.9999 19.9999H114C115.104 19.9999 116 20.8959 116 21.9998V79.9999H4.00008V22.0001C4.00008 20.8962 4.89609 20.0001 6 20.0001H19.9999C21.1038 20.0001 21.9998 19.1041 21.9998 18.0002C21.9998 16.8963 21.1038 16.0003 19.9999 16.0003H6C2.68594 16.0003 0 18.6862 0 22.0003V90C0 93.314 2.68594 96 6 96H52.0001V108H36C35.242 108 34.548 108.428 34.2101 109.106L30.21 117.106C29.7159 118.094 30.116 119.296 31.106 119.79C31.3821 119.928 31.6901 120 31.9999 120H87.9998C89.1038 120.006 90.0037 119.116 90.0098 118.01C90.0119 117.696 89.9398 117.386 89.7998 117.106L85.7998 109.106C85.4597 108.424 84.7617 107.996 83.9998 108H67.9997V96H114C117.314 96 120 93.314 120 90V22.0001C120 18.686 117.314 16.0001 114 16.0001ZM84.7641 116H35.2359L37.2359 112H82.7639L84.7641 116ZM64.0001 108H56.0002V96H64.0001V108ZM116 90C116 91.1039 115.104 91.9999 114 91.9999H6C4.89609 91.9999 4.00008 91.1039 4.00008 90V84H116V90H116Z" fill="black"/>
<path d="M60 67.9999C43.432 67.9999 30 54.5679 30 37.9999C30 21.432 43.432 7.99994 60 7.99994C76.568 7.99994 90 21.432 90 37.9999C89.982 54.5599 76.56 67.9821 60 67.9999ZM60 12C45.6401 12 34.0001 23.64 34.0001 37.9999C34.0001 52.3599 45.6401 64.0001 60 64.0001C74.3599 64.0001 85.9999 52.3601 85.9999 38.0002C85.984 23.648 74.352 12.016 60 12Z" fill="black"/>
<path d="M60 76.0001C39.0141 76.0001 22.0001 58.9861 22.0001 38.0002C22.0001 17.0142 39.0141 0 60 0C80.986 0 98 17.014 98 37.9999C97.9761 58.9779 80.978 75.9759 60 76.0001ZM60 4.00008C41.2222 4.00008 26 19.222 26 38.0002C26 56.7783 41.2222 72 60 72C78.7779 72 94.0001 56.778 94.0001 37.9999C93.98 19.23 78.77 4.02 60 4.00008Z" fill="black"/>
<path d="M64.0001 90H56.0002C54.8963 90 54.0002 89.104 54.0002 88C54.0002 86.8961 54.8963 86.0001 56.0002 86.0001H64.0001C65.104 86.0001 66 86.8961 66 88C66 89.104 65.104 90 64.0001 90Z" fill="#BFBFBF"/>
<path d="M71.9999 30C71.9999 26.686 69.314 24 65.9999 24H64V19.9999H59.9999V24H58V19.9999H53.9999V24H47.9999V28.0001H52V48H47.9999V52.0001H53.9999V56.0002H58V52.0001H59.9999V56.0002H64V52.0001H65.9999C69.314 52.0001 71.9999 49.3141 71.9999 46.0001V42C71.9938 40.5199 71.4379 39.094 70.4399 37.9999C71.4379 36.9059 71.9938 35.4799 71.9999 33.9999V30ZM55.9999 28.0001H65.9999C67.1038 28.0001 67.9998 28.8961 67.9998 30V34.0001C67.9998 35.104 67.1038 36 65.9999 36H55.9999V28.0001ZM67.9998 46.0001C67.9998 47.104 67.1038 48 65.9999 48H55.9999V40.0001H65.9999C67.1038 40.0001 67.9998 40.8961 67.9998 42V46.0001Z" fill="black"/>
</g>
<defs>
<clipPath id="clip0">
<rect width="120" height="120" fill="white"/>
</clipPath>
</defs>
</svg>
