<svg width="100" height="100" viewBox="0 0 100 100" fill="none" xmlns="http://www.w3.org/2000/svg">
<g clip-path="url(#clip0)">
<path d="M95.4539 50.4194V36.3646C95.4539 31.5988 91.7573 27.7229 87.0867 27.3471L74.0343 4.54915C72.8248 2.44066 70.8716 0.933651 68.5345 0.30788C66.2085 -0.31363 63.7761 0.0127853 61.6943 1.22448L16.95 27.2738H9.09156C4.07794 27.2738 0.000732422 31.3508 0.000732422 36.3646V90.9092C0.000732422 95.9228 4.07773 100 9.09156 100H86.3631C91.3767 100 95.4539 95.923 95.4539 90.9092V76.8544C98.0936 75.913 99.9992 73.414 99.9992 70.455V56.8188C99.9992 53.8598 98.0936 51.3607 95.4539 50.4194ZM63.9824 5.15276C65.0121 4.55128 66.2129 4.39148 67.3582 4.69787C68.5189 5.00851 69.4867 5.75871 70.0882 6.80848L74.5167 14.5438C72.4969 15.4417 70.3411 15.9104 68.1817 15.9104C63.3006 15.9104 58.8279 13.6952 55.8256 9.90133L63.9824 5.15276ZM51.8775 12.1999C55.7327 17.3972 61.6676 20.4559 68.1817 20.4559C71.1305 20.4559 74.0539 19.7607 76.7705 18.4804L81.805 27.274H25.984L51.8775 12.1999ZM90.9084 90.9092C90.9084 93.4148 88.8687 95.4545 86.3631 95.4545H9.09156C6.58592 95.4545 4.54625 93.4148 4.54625 90.9092V36.3646C4.54625 33.859 6.58592 31.8193 9.09156 31.8193H86.3631C88.8687 31.8193 90.9084 33.859 90.9084 36.3646V50.0008H77.2723C69.7528 50.0008 63.6361 56.1174 63.6361 63.6369C63.6361 71.1564 69.7528 77.273 77.2723 77.273H90.9084V90.9092V90.9092ZM95.4539 70.455C95.4539 71.7089 94.4353 72.7277 93.1812 72.7277H77.2723C72.2586 72.7277 68.1814 68.6507 68.1814 63.6369C68.1814 58.6233 72.2584 54.5461 77.2723 54.5461H93.1812C94.4351 54.5461 95.4539 55.5647 95.4539 56.8188V70.455V70.455Z" fill="#BFBFBF"/>
<path d="M77.2724 59.0916C74.7667 59.0916 72.7271 61.1313 72.7271 63.6369C72.7271 66.1425 74.7667 68.1822 77.2724 68.1822C79.778 68.1822 81.8177 66.1425 81.8177 63.6369C81.8179 61.1313 79.7782 59.0916 77.2724 59.0916Z" fill="#BFBFBF"/>
<path d="M45.3207 63.0115C46.9279 61.3289 47.9168 59.0482 47.9168 56.5418C47.9168 53.299 46.2598 50.4383 43.7502 48.7543V45.0834C43.7502 43.9318 42.8184 43 41.6668 43C40.5152 43 39.5834 43.9318 39.5834 45.0834V47.2721C39.2371 47.2332 38.8984 47.1668 38.5418 47.1668H35.4168V45.0834C35.4168 43.9318 34.485 43 33.3334 43C32.1818 43 31.25 43.9318 31.25 45.0834V47.1668H27.0834C25.9318 47.1668 25 48.0986 25 49.2502C25 50.4018 25.9318 51.3336 27.0834 51.3336H29.1668V76.3336H27.0834C25.9318 76.3336 25 77.2654 25 78.417C25 79.5686 25.9318 80.5004 27.0834 80.5004H31.25V82.5834C31.25 83.735 32.1818 84.6668 33.3334 84.6668C34.485 84.6668 35.4168 83.735 35.4168 82.5834V80.5H39.5834V82.5834C39.5834 83.735 40.5152 84.6668 41.6668 84.6668C42.8184 84.6668 43.7502 83.735 43.7502 82.5834V79.924C47.3789 78.6299 50.0002 75.1934 50.0002 71.125C50 67.6645 48.116 64.6371 45.3207 63.0115ZM33.3334 51.3334H38.5418C41.4145 51.3334 43.75 53.6689 43.75 56.5418C43.75 59.4145 41.4145 61.7502 38.5416 61.7502H33.3332V51.3334H33.3334ZM40.625 76.3334H33.3334V65.9168H40.625C43.4977 65.9168 45.8334 68.2523 45.8334 71.1252C45.8334 73.9979 43.4977 76.3334 40.625 76.3334Z" fill="#339966"/>
</g>
<defs>
<clipPath id="clip0">
<rect width="100" height="100" fill="white"/>
</clipPath>
</defs>
</svg>
