<svg width="120" height="120" viewBox="0 0 120 120" fill="none" xmlns="http://www.w3.org/2000/svg">
<g clip-path="url(#clip0)">
<path d="M60.0025 22.0213C42.3368 22.0213 28.0178 36.3406 28.0178 54.006C28.0178 71.6715 42.3371 85.9908 60.0025 85.9908C77.668 85.9908 91.9872 71.6715 91.9872 54.006C91.9872 36.3406 77.6661 22.0213 60.0025 22.0213ZM60.0025 77.9945C46.7548 77.9945 36.0138 67.2537 36.0138 54.0058C36.0138 40.7579 46.7546 30.0171 60.0025 30.0171C73.2504 30.0171 83.9912 40.7579 83.9912 54.0058C83.9912 67.2537 73.2502 77.9945 60.0025 77.9945Z" fill="#339966"/>
<path d="M60.0026 30.0173C46.7549 30.0173 36.0139 40.7581 36.0139 54.0061C36.0139 67.254 46.7547 77.9948 60.0026 77.9948C73.2505 77.9948 83.9913 67.254 83.9913 54.0061C83.9913 40.7581 73.2503 30.0173 60.0026 30.0173ZM69.9979 50.0081C69.9979 52.2171 68.2086 54.0061 65.9999 54.0061C68.2089 54.0061 69.9979 55.7953 69.9979 58.0041V62.0021C69.9979 64.2111 68.2086 66.0001 65.9999 66.0001H62.0019H56.0044L56.0543 71.9973L56.0044 66.0001H54.0054V42.0118H56.0044L56.0543 36.0146L56.0044 42.0118H62.0016H65.9996C68.2086 42.0118 69.9976 43.8011 69.9976 46.0098V50.0081H69.9979Z" fill="#339966"/>
<path d="M65.9996 42.0118H54.0054V54.006H65.9996C68.2086 54.006 69.9976 52.2168 69.9976 50.008V46.01C69.9978 43.8008 68.2067 42.0118 65.9996 42.0118Z" fill="#339966"/>
<path d="M54.0054 66.0003H65.9996C68.2086 66.0003 69.9976 64.2111 69.9976 62.0023V58.0043C69.9976 55.7953 68.2084 54.0063 65.9996 54.0063H54.0054V66.0003Z" fill="#339966"/>
<path d="M60.0105 117.983C62.2185 117.983 64.0085 116.193 64.0085 113.985C64.0085 111.777 62.2185 109.987 60.0105 109.987C57.8024 109.987 56.0125 111.777 56.0125 113.985C56.0125 116.193 57.8024 117.983 60.0105 117.983Z" fill="white"/>
<path d="M87.9973 117.983C90.2053 117.983 91.9953 116.193 91.9953 113.985C91.9953 111.777 90.2053 109.987 87.9973 109.987C85.7892 109.987 83.9993 111.777 83.9993 113.985C83.9993 116.193 85.7892 117.983 87.9973 117.983Z" fill="white"/>
<path d="M113.985 117.983C116.193 117.983 117.983 116.193 117.983 113.985C117.983 111.777 116.193 109.987 113.985 109.987C111.777 109.987 109.987 111.777 109.987 113.985C109.987 116.193 111.777 117.983 113.985 117.983Z" fill="white"/>
<path d="M32.0239 117.983C34.2319 117.983 36.0219 116.193 36.0219 113.985C36.0219 111.777 34.2319 109.987 32.0239 109.987C29.8158 109.987 28.0259 111.777 28.0259 113.985C28.0259 116.193 29.8158 117.983 32.0239 117.983Z" fill="white"/>
<path d="M6.03609 117.983C8.24412 117.983 10.0341 116.193 10.0341 113.985C10.0341 111.777 8.24412 109.987 6.03609 109.987C3.82805 109.987 2.03809 111.777 2.03809 113.985C2.03809 116.193 3.82805 117.983 6.03609 117.983Z" fill="white"/>
<path d="M60.0026 79.9937C45.6494 79.9937 34.0149 68.3593 34.0149 54.006C34.0149 39.6528 45.6494 28.0183 60.0026 28.0183C74.3558 28.0183 85.9903 39.6528 85.9903 54.006C85.9723 68.3513 74.3476 79.9757 60.0026 79.9937ZM60.0026 32.0166C47.8584 32.0166 38.0131 41.8618 38.0131 54.006C38.0131 66.1503 47.8584 75.9955 60.0026 75.9955C72.1468 75.9955 81.9921 66.1503 81.9921 54.006C81.9761 41.8658 72.1407 32.0304 60.0026 32.0166Z" fill="white"/>
<path d="M71.9968 46.0098C71.9968 42.6974 69.312 40.0126 65.9995 40.0126H64.0005V36.0146H60.0025V40.0126H58.0035V36.0146H54.0534L54.0215 40.0126H48.0083V44.0106H52.0063V64.0011H48.0083V67.9991H54.0215L54.0534 72.0132L58.0035 71.9973V67.9993H60.0025V71.9973H64.0005V67.9993H65.9995C69.312 67.9993 71.9968 65.3145 71.9968 62.0021V58.0041C71.9907 56.5247 71.435 55.0994 70.4375 54.0061C71.435 52.9127 71.9907 51.4872 71.9968 50.0081V46.0098ZM56.0043 44.0108H65.9995C67.103 44.0108 67.9985 44.9064 67.9985 46.0098V50.0078C67.9985 51.1113 67.103 52.0068 65.9995 52.0068H56.0043V44.0108ZM67.9988 62.0023C67.9988 63.1057 67.1032 64.0013 65.9998 64.0013H56.0043V56.0051H65.9995C67.103 56.0051 67.9985 56.9006 67.9985 58.0041V62.0023H67.9988Z" fill="white"/>
<path d="M60.0025 87.99C41.2334 87.99 26.0186 72.7752 26.0186 54.0061C26.0186 35.2369 41.2334 20.0221 60.0025 20.0221C78.7716 20.0221 93.9864 35.2369 93.9864 54.0061C93.9644 72.7651 78.7615 87.968 60.0025 87.99ZM60.0025 24.0203C43.4424 24.0203 30.0168 37.4459 30.0168 54.0061C30.0168 70.5662 43.4424 83.9918 60.0025 83.9918C76.5626 83.9918 89.9882 70.5662 89.9882 54.0061C89.9683 37.452 76.5547 24.0384 60.0025 24.0203Z" fill="#BFBFBF"/>
<path d="M62.0016 108.348V93.987C62.0016 92.8835 61.1061 91.988 60.0026 91.988C58.8992 91.988 58.0036 92.8835 58.0036 93.987V108.348C54.881 109.452 53.2439 112.878 54.3495 116.001C55.4529 119.123 58.8793 120.76 62.0019 119.655C65.1245 118.551 66.7616 115.125 65.656 112.002C65.0523 110.295 63.7088 108.952 62.0016 108.348ZM60.0026 115.976C58.8992 115.976 58.0036 115.081 58.0036 113.977C58.0036 112.874 58.8992 111.978 60.0026 111.978C61.1061 111.978 62.0016 112.874 62.0016 113.977C62.0016 115.081 61.1061 115.976 60.0026 115.976Z" fill="#BFBFBF"/>
<path d="M87.9893 107.98C87.0977 107.984 86.2181 108.188 85.4166 108.58L85.4046 108.562L75.9951 99.1566V91.988C75.9951 90.8845 75.0995 89.989 73.9961 89.989C72.8926 89.989 71.9971 90.8845 71.9971 91.988V99.9842C71.9971 100.514 72.2071 101.024 72.5828 101.398L82.578 111.393L82.5961 111.405C82.2042 112.206 81.9963 113.086 81.9923 113.977C81.9923 117.29 84.6771 119.975 87.9895 119.975C91.302 119.975 93.9868 117.29 93.9868 113.977C93.9868 110.665 91.2996 107.98 87.9893 107.98ZM87.9893 115.976C86.8859 115.976 85.9903 115.081 85.9903 113.977C85.9903 112.874 86.8859 111.978 87.9893 111.978C89.0928 111.978 89.9883 112.874 89.9883 113.977C89.9883 115.081 89.0928 115.976 87.9893 115.976Z" fill="#BFBFBF"/>
<path d="M113.977 107.98C113.085 107.984 112.206 108.188 111.404 108.58L111.392 108.562L91.9873 89.1614V79.9937C91.9873 78.8903 91.0917 77.9947 89.9883 77.9947C88.8848 77.9947 87.9893 78.8903 87.9893 79.9937V89.989C87.9893 90.5187 88.1993 91.0284 88.575 91.4023L108.565 111.393L108.583 111.405C108.192 112.206 107.984 113.086 107.98 113.977C107.98 117.29 110.665 119.975 113.977 119.975C117.289 119.975 119.974 117.29 119.974 113.977C119.974 110.665 117.287 107.98 113.977 107.98ZM113.977 115.976C112.873 115.976 111.978 115.081 111.978 113.977C111.978 112.874 112.873 111.978 113.977 111.978C115.08 111.978 115.976 112.874 115.976 113.977C115.976 115.081 115.08 115.976 113.977 115.976Z" fill="#BFBFBF"/>
<path d="M46.009 89.989C44.9056 89.989 44.01 90.8845 44.01 91.988V99.1566L34.6005 108.566L34.5885 108.584C33.787 108.192 32.9074 107.984 32.0158 107.98C28.7033 107.98 26.0186 110.665 26.0186 113.978C26.0186 117.29 28.7033 119.975 32.0158 119.975C35.3282 119.975 38.013 117.29 38.013 113.978C38.009 113.086 37.8051 112.207 37.4133 111.405L37.4313 111.393L47.4265 101.398C47.8004 101.022 48.0083 100.514 48.0083 99.9844V91.9882C48.0083 90.8824 47.1125 89.989 46.009 89.989ZM32.0158 115.976C30.9123 115.976 30.0168 115.081 30.0168 113.977C30.0168 112.874 30.9123 111.978 32.0158 111.978C33.1192 111.978 34.0148 112.874 34.0148 113.977C34.0148 115.081 33.1192 115.976 32.0158 115.976Z" fill="#BFBFBF"/>
<path d="M11.4395 111.393L31.43 91.4023C31.8057 91.0284 32.0157 90.5187 32.0157 89.989V79.9937C32.0157 78.8903 31.1202 77.9947 30.0167 77.9947C28.9133 77.9947 28.0177 78.8903 28.0177 79.9937V89.1614L8.61295 108.566L8.601 108.584C7.79943 108.192 6.91981 107.984 6.02824 107.98C2.71579 107.98 0.0310059 110.665 0.0310059 113.978C0.0310059 117.29 2.71579 119.975 6.02824 119.975C9.34069 119.975 12.0255 117.29 12.0255 113.978C12.0215 113.086 11.8176 112.207 11.4257 111.405L11.4395 111.393ZM6.02801 115.976C4.92456 115.976 4.02901 115.081 4.02901 113.977C4.02901 112.874 4.92456 111.978 6.02801 111.978C7.13145 111.978 8.02701 112.874 8.02701 113.977C8.02701 115.081 7.13145 115.976 6.02801 115.976Z" fill="#BFBFBF"/>
<path d="M107.336 42.8253C109.995 33.252 104.389 23.3346 94.8159 20.6758C91.7475 19.8243 88.507 19.8002 85.4263 20.6099C82.4518 6.56865 68.6604 -2.40517 54.6191 0.569542C44.5639 2.69862 36.7076 10.5547 34.5787 20.6099C24.9454 18.107 15.1079 23.8884 12.6052 33.5199C11.8116 36.5745 11.8336 39.7829 12.6692 42.8253C3.18161 45.778 -2.1139 55.8651 0.840889 65.3506C3.18372 72.871 10.1464 77.9945 18.0228 77.9926H24.0201C25.1235 77.9926 26.0191 77.0971 26.0191 75.9936C26.0191 74.8902 25.1235 73.9946 24.0201 73.9946H18.0224C10.294 73.9867 4.03709 67.7136 4.04505 59.9852C4.05302 53.1944 8.93463 47.3891 15.6235 46.2177C16.711 46.0297 17.4406 44.9964 17.2548 43.9089C17.2288 43.7549 17.1847 43.607 17.1228 43.4631C16.3892 41.7399 16.0154 39.8848 16.0234 38.0117C16.0313 30.2873 22.2925 24.0264 30.0166 24.0185C31.8637 24.0145 33.6949 24.3822 35.396 25.102C36.4134 25.5297 37.5848 25.0539 38.0147 24.0365C38.0888 23.8605 38.1366 23.6746 38.1586 23.4848C39.556 11.4205 50.4667 2.77268 62.531 4.17004C72.6722 5.34356 80.6703 13.3438 81.8457 23.4848C81.9697 24.5824 82.9593 25.3699 84.0566 25.2459C84.2465 25.2239 84.4323 25.1758 84.6083 25.102C86.3094 24.3822 88.1406 24.0145 89.9878 24.0185C97.7121 24.0264 103.973 30.2876 103.981 38.0117C103.989 39.8848 103.615 41.7399 102.882 43.4631C102.448 44.4786 102.919 45.6519 103.935 46.0857C104.077 46.1457 104.227 46.1917 104.381 46.2177C111.993 47.5511 117.083 54.8036 115.75 62.4159C114.578 69.1048 108.773 73.9864 101.982 73.9944H95.9848C94.8813 73.9944 93.9858 74.8899 93.9858 75.9934C93.9858 77.0968 94.8813 77.9924 95.9848 77.9924H101.982C111.919 77.9945 119.975 69.9423 119.977 60.0049C119.98 52.1289 114.856 45.1663 107.336 42.8253Z" fill="#BFBFBF"/>
</g>
<defs>
<clipPath id="clip0">
<rect width="120" height="120" fill="white"/>
</clipPath>
</defs>
</svg>
